<svg width="1440" height="900" viewBox="0 0 1440 900" fill="none" xmlns="http://www.w3.org/2000/svg">
<g clip-path="url(#clip0)">
<rect width="1440" height="900" fill="white"/>
<path opacity="0.3" d="M196.853 306.513C202.503 312.161 211.652 312.161 217.27 306.513C222.92 300.864 222.92 291.718 217.27 286.102C211.62 280.453 202.471 280.453 196.853 286.102C191.203 291.75 191.203 300.864 196.853 306.513ZM53.84 274.74C73.2617 255.324 104.786 255.324 124.207 274.74C143.629 294.157 143.629 325.673 124.207 345.089C104.786 364.506 73.2617 364.506 53.84 345.089C34.4184 325.673 34.3863 294.189 53.84 274.74ZM-92.6093 633C-61.5667 614.225 -30.171 599.719 -15.7893 546.893C3.47185 476.063 -30.2672 404.526 -26.1261 333.824C-12.5791 103.49 217.269 293.066 327.154 198.037C416.109 121.142 364.36 -5.14527 483.138 -58.9658C556.555 -92.2466 635.851 -95.3597 707.117 -138.622C772.348 -178.225 833.15 -231.949 844 -310L761.434 -310C761.498 -308.877 761.53 -307.721 761.53 -306.63C761.626 -281.405 747.277 -259.004 731.29 -240.614C705.801 -211.281 675.013 -185.991 643.168 -163.847C627.117 -152.679 611.258 -142.441 592.382 -136.76C583.843 -134.193 539.669 -123.826 527.406 -128.287C515.272 -132.716 507.503 -145.682 510.488 -158.391C516.556 -184.29 550.424 -180.632 569.589 -188.88C600.343 -202.102 623.425 -229.831 634.853 -260.833C640.984 -277.457 645.608 -294.467 653.184 -309.968L446.685 -309.986C370.648 -309.993 306.634 -253.105 297.709 -177.593L281.568 -41.0314C275.491 10.3825 243.331 55.0284 196.489 77.0778L9.77631 164.968C-34.2826 185.707 -65.532 226.544 -74.0349 274.492L-107 460.384L-92.6093 473.271C-83.0429 443.905 -76.2694 413.159 -73.9581 382.638C-73.3802 374.775 -62.4335 374.454 -60.4753 380.713C-54.9216 388.479 -54.6327 397.273 -52.3856 406.452C-50.8126 412.87 -38.8706 474.138 -37.6187 496.058C-36.0457 523.209 -40.2189 556.04 -58.9986 576.997C-65.8042 584.571 -74.0865 591.439 -84.8406 591.054C-87.473 590.958 -90.0732 590.444 -92.6093 589.706L-92.6093 633ZM441.18 -94.1402C422.561 -100.045 415.98 -119.59 426.638 -135.669C431.229 -142.601 438.42 -148.731 446.959 -149.18C447.729 -149.63 448.564 -150.015 449.495 -150.271C468.563 -156.016 481.661 -135.605 480.152 -118.659C478.387 -99.1146 459.511 -88.3313 441.18 -94.1402Z" fill="#E9EBF8"/>
<g opacity="0.12" filter="url(#filter0_f)">
<path d="M20.1468 828.625C85.9729 780.972 162.083 755.79 233.862 719.267C269.011 701.375 303.491 681.124 333.886 655.836C367.345 628.012 396.402 595.117 424.472 561.975C452.577 528.797 481.176 495.585 508.119 461.492C532.773 430.287 549.925 393.799 574.509 362.418C623.641 299.762 695.842 279.792 770.085 263.45C804.918 255.807 838.835 247.319 867.222 224.532C894.165 202.907 913.747 174.309 929.984 144.16C964.922 79.3203 984.187 7.50669 1017.29 -58.1785C1053.39 -129.851 1104.01 -194.163 1171.84 -238.047C1196.92 -254.283 1224.25 -267.103 1252 -277L1252 899.628L-60.9999 899.628C-35.712 873.636 -9.54363 850.144 20.1468 828.625Z" fill="url(#paint0_linear)"/>
<path d="M934.422 223.053C928.223 216.854 918.185 216.854 912.022 223.053C905.823 229.252 905.823 239.289 912.022 245.453C918.22 251.651 928.258 251.651 934.422 245.453C940.62 239.254 940.62 229.252 934.422 223.053ZM1091.33 257.921C1070.02 279.229 1035.43 279.229 1014.12 257.921C992.816 236.613 992.816 202.027 1014.12 180.718C1035.43 159.41 1070.02 159.41 1091.33 180.718C1112.63 202.026 1112.67 236.577 1091.33 257.921ZM1252 -135.24C1217.94 -114.636 1183.5 -98.7167 1167.72 -40.7446C1146.59 36.9858 1183.6 115.491 1179.06 193.081C1164.2 445.854 912.022 237.81 791.464 342.096C693.869 426.483 750.644 565.074 620.33 624.138C539.782 660.661 452.789 664.077 374.6 711.554C303.033 755.015 236.327 813.973 224.422 899.628L315.008 899.628C314.938 898.396 314.903 897.128 314.903 895.93C314.797 868.247 330.54 843.664 348.08 823.483C376.044 791.292 409.82 763.538 444.759 739.237C462.368 726.98 479.767 715.745 500.476 709.511C509.845 706.693 558.308 695.317 571.762 700.213C585.075 705.073 593.598 719.302 590.323 733.249C583.666 761.672 546.509 757.657 525.483 766.708C491.742 781.219 466.419 811.649 453.881 845.671C447.154 863.915 442.082 882.582 433.77 899.593L1252 899.593L1252 40.05C1241.5 72.2763 1234.07 106.017 1231.54 139.511C1230.9 148.14 1218.89 148.492 1216.74 141.624C1210.65 133.101 1210.33 123.451 1207.87 113.378C1206.14 106.334 1193.04 39.0991 1191.67 15.0438C1189.94 -14.7523 1194.52 -50.7823 1215.12 -73.781C1222.59 -82.0929 1231.68 -89.63 1243.48 -89.2073C1246.36 -89.1017 1249.22 -88.538 1252 -87.7279L1252 -135.24ZM666.363 662.739C686.79 669.219 694.01 690.668 682.317 708.313C677.281 715.921 669.391 722.648 660.023 723.141C659.178 723.634 658.262 724.057 657.241 724.339C636.32 730.643 621.95 708.243 623.605 689.647C625.543 668.198 646.252 656.364 666.363 662.739Z" fill="url(#paint1_linear)"/>
</g>
<g filter="url(#filter1_f)">
<path d="M1090.99 427.119C1097.44 433.57 1107.89 433.57 1114.3 427.119C1120.75 420.668 1120.75 410.222 1114.3 403.807C1107.85 397.356 1097.4 397.356 1090.99 403.807C1084.54 410.259 1084.54 420.668 1090.99 427.119ZM927.672 390.832C949.851 368.656 985.85 368.656 1008.03 390.832C1030.21 413.007 1030.21 449.002 1008.03 471.177C985.85 493.353 949.851 493.353 927.672 471.177C905.494 449.002 905.457 413.044 927.672 390.832ZM944.106 591.367C979.555 569.924 1015.41 553.357 1031.83 493.024C1053.83 412.129 831.626 539.06 836.355 458.312C851.825 195.247 1114.3 411.761 1239.79 303.229C1341.37 215.407 1282.27 71.1745 1417.91 9.70608C1501.75 -28.3039 1592.3 -31.8594 1673.69 -81.2687C1748.18 -126.5 1817.61 -187.858 1830 -277L1735.71 -277C1735.79 -275.717 1735.82 -274.398 1735.82 -273.151C1735.93 -244.341 1719.55 -218.757 1701.29 -197.754C1672.18 -164.253 1637.02 -135.37 1600.66 -110.079C1582.33 -97.3232 1564.22 -85.6305 1542.66 -79.1428C1532.91 -76.2105 1482.47 -64.3713 1468.46 -69.4662C1454.61 -74.5244 1445.74 -89.3326 1449.14 -103.848C1456.07 -133.427 1494.75 -129.249 1516.63 -138.669C1551.75 -153.77 1578.11 -185.439 1591.16 -220.846C1598.17 -239.833 1603.44 -259.26 1612.1 -276.963L1357.36 -276.986C1281.32 -276.993 1217.31 -220.103 1208.38 -144.591L1186.34 41.9381C1180.26 93.3503 1148.11 137.995 1101.27 160.046L941.098 235.451C877.055 265.601 869.601 353.745 927.672 394.222V394.222L944.106 408.94C955.03 375.402 962.765 340.286 965.405 305.429C966.065 296.448 978.565 296.082 980.802 303.229C987.144 312.1 987.474 322.143 990.04 332.626C991.836 339.957 1005.47 409.93 1006.9 434.965C1008.7 465.974 1003.93 503.471 982.488 527.406C974.716 536.056 965.258 543.9 952.978 543.46C949.971 543.35 947.002 542.763 944.106 541.92L944.106 591.367ZM1370 -30.4665C1348.74 -37.2108 1341.22 -59.533 1353.39 -77.8965C1358.63 -85.8138 1366.84 -92.8147 1376.6 -93.3278C1377.48 -93.841 1378.43 -94.2809 1379.49 -94.5741C1401.27 -101.135 1416.22 -77.8232 1414.5 -58.47C1412.49 -36.1479 1390.93 -23.8322 1370 -30.4665Z" fill="white"/>
</g>
<path d="M88.1601 842.17C90.0968 844.105 93.2331 844.105 95.1588 842.17C97.0956 840.236 97.0956 837.103 95.1588 835.179C93.2221 833.244 90.0858 833.244 88.1601 835.179C86.2233 837.114 86.2233 840.236 88.1601 842.17ZM39.1355 831.288C45.7932 824.637 56.5995 824.637 63.2572 831.288C69.9149 837.938 69.9149 848.733 63.2572 855.384C56.5995 862.034 45.7932 862.034 39.1355 855.384C32.4778 848.733 32.4668 837.949 39.1355 831.288ZM-11.0669 954C-0.425599 947.569 10.3368 942.6 15.2668 924.506C21.8694 900.245 10.3038 875.742 11.7233 851.525C16.3672 772.63 95.1586 837.564 132.827 805.015C163.32 778.676 145.581 735.42 186.297 716.985C211.465 705.586 238.647 704.519 263.077 689.701C285.438 676.136 306.28 657.734 310 631L281.697 631C281.719 631.385 281.73 631.781 281.73 632.154C281.763 640.795 276.844 648.467 271.363 654.766C262.626 664.814 252.072 673.476 241.155 681.061C235.653 684.886 230.217 688.393 223.746 690.339C220.819 691.218 205.676 694.769 201.473 693.241C197.313 691.724 194.65 687.283 195.673 682.93C197.753 674.059 209.363 675.312 215.933 672.487C226.475 667.958 234.387 658.46 238.305 647.841C240.407 642.147 241.992 636.32 244.589 631.011L202.754 631.007C160.176 631.003 124.329 662.857 119.328 705.14V705.14C115.921 733.938 97.902 758.943 71.6609 771.285L54.9201 779.159C20.4454 795.374 -4.01026 827.318 -10.6677 864.829L-16 894.875L-11.0669 899.289C-7.78757 889.231 -5.46565 878.699 -4.67333 868.245C-4.47525 865.552 -0.722732 865.442 -0.0514608 867.586C1.85231 870.246 1.95134 873.258 2.72166 876.402C3.26087 878.6 7.35455 899.586 7.78372 907.094C8.32294 916.394 6.89235 927.639 0.454746 934.818C-1.8782 937.412 -4.71734 939.764 -8.40383 939.632C-9.3062 939.6 -10.1975 939.424 -11.0669 939.171L-11.0669 954ZM171.915 704.937C165.532 702.914 163.276 696.22 166.93 690.713C168.503 688.338 170.968 686.238 173.895 686.085C174.159 685.931 174.446 685.799 174.765 685.711C181.301 683.743 185.791 690.735 185.274 696.539C184.669 703.233 178.198 706.927 171.915 704.937Z" fill="white"/>
<g filter="url(#filter2_f)">
<path d="M522.42 896.146C526.537 900.261 533.204 900.261 537.298 896.146C541.415 892.031 541.415 885.367 537.298 881.275C533.181 877.16 526.514 877.16 522.42 881.275C518.303 885.391 518.303 892.031 522.42 896.146ZM418.205 872.999C432.358 858.853 455.33 858.853 469.482 872.999C483.635 887.144 483.635 910.104 469.482 924.249C455.33 938.395 432.358 938.395 418.205 924.249C404.052 910.104 404.029 887.167 418.205 872.999ZM311.487 1134C334.108 1120.32 356.986 1109.75 367.466 1071.27C381.502 1019.67 356.916 967.551 359.933 916.043C369.805 748.238 537.297 886.349 617.371 817.118C682.193 761.098 644.483 669.095 731.037 629.885C784.537 605.639 842.32 603.371 894.253 571.854C941.787 543.002 986.093 503.862 994 447L933.833 447C933.88 447.818 933.904 448.66 933.904 449.455C933.974 467.832 923.517 484.152 911.868 497.549C893.294 518.919 870.858 537.343 847.652 553.476C835.956 561.613 824.399 569.071 810.644 573.21C804.422 575.08 772.232 582.632 763.296 579.382C754.453 576.156 748.792 566.71 750.968 557.451C755.389 538.583 780.069 541.248 794.035 535.239C816.445 525.606 833.265 505.405 841.593 482.819C846.061 470.708 849.43 458.316 854.951 447.023L740.641 447.013C664.606 447.006 600.592 503.892 591.665 579.402L586.806 620.504C580.727 671.922 548.562 716.569 501.715 738.615L405.163 784.053C361.099 804.79 329.845 845.627 321.34 893.577L301 1008.24L311.487 1017.63C318.458 996.24 323.394 973.84 325.078 951.605C325.499 945.877 333.476 945.643 334.903 950.202C338.95 955.86 339.16 962.267 340.798 968.954C341.944 973.63 350.646 1018.26 351.559 1034.23C352.705 1054.01 349.664 1077.93 335.979 1093.2C331.02 1098.72 324.984 1103.72 317.148 1103.44C315.229 1103.37 313.335 1103 311.487 1102.46L311.487 1134ZM700.463 604.259C686.895 599.957 682.099 585.719 689.866 574.005C693.211 568.954 698.451 564.489 704.673 564.161C705.235 563.834 705.843 563.553 706.521 563.366C720.417 559.181 729.961 574.051 728.862 586.397C727.575 600.635 713.82 608.491 700.463 604.259Z" fill="white"/>
</g>
<circle cx="1163" cy="462" r="97" fill="white"/>
<g opacity="0.1">
<path d="M1417.56 509.213C1402.45 530.085 1394.47 554.217 1382.89 576.976C1377.22 588.121 1370.8 599.054 1362.78 608.692C1353.96 619.301 1343.53 628.514 1333.02 637.414C1322.5 646.325 1311.97 655.393 1301.16 663.936C1291.26 671.753 1279.69 677.192 1269.74 684.987C1249.88 700.565 1243.54 723.458 1238.36 746.999C1235.94 758.043 1233.25 768.797 1226.02 777.798C1219.17 786.341 1210.1 792.55 1200.54 797.698C1179.98 808.776 1157.21 814.885 1136.38 825.382C1113.66 836.829 1093.27 852.876 1079.35 874.384C1074.2 882.336 1070.14 891.001 1067 899.801L1440.08 899.801L1440.08 483.484C1431.84 491.502 1424.39 499.799 1417.56 509.213Z" fill="url(#paint2_linear)"/>
<path d="M1225.55 799.106C1223.59 797.14 1223.59 793.957 1225.55 792.003C1227.52 790.038 1230.7 790.038 1232.66 792.003C1234.62 793.969 1234.62 797.151 1232.66 799.106C1230.69 801.071 1227.52 801.071 1225.55 799.106ZM1236.61 848.856C1243.37 842.1 1243.37 831.133 1236.61 824.377C1229.85 817.621 1218.89 817.621 1212.13 824.377C1205.37 831.133 1205.37 842.1 1212.13 848.856C1218.89 855.612 1229.84 855.623 1236.61 848.856ZM1111.95 899.801C1118.48 889.002 1123.53 878.081 1141.91 873.078C1166.56 866.377 1191.45 878.114 1216.05 876.674C1296.2 871.961 1230.23 792.003 1263.3 753.777C1290.06 722.833 1334 740.834 1352.73 699.515C1364.31 673.976 1365.39 646.392 1380.44 621.601C1394.22 598.909 1412.92 577.758 1440.08 573.984L1440.08 602.706C1439.69 602.684 1439.28 602.672 1438.91 602.672C1430.13 602.639 1422.33 607.631 1415.93 613.192C1405.73 622.059 1396.93 632.768 1389.22 643.846C1385.34 649.43 1381.77 654.947 1379.8 661.513C1378.9 664.484 1375.3 679.85 1376.85 684.116C1378.39 688.337 1382.9 691.039 1387.32 690.001C1396.34 687.89 1395.06 676.109 1397.93 669.442C1402.53 658.744 1412.18 650.714 1422.97 646.739C1428.75 644.606 1434.67 642.998 1440.07 640.362L1440.07 899.801L1167.53 899.801C1177.75 896.473 1188.44 894.117 1199.06 893.313C1201.8 893.112 1201.91 889.304 1199.73 888.623C1197.03 886.691 1193.97 886.59 1190.78 885.809C1188.54 885.261 1167.23 881.107 1159.6 880.672C1150.15 880.124 1138.73 881.576 1131.44 888.109C1128.8 890.477 1126.41 893.358 1126.54 897.099C1126.58 898.014 1126.76 898.919 1127.01 899.801L1111.95 899.801ZM1364.97 714.111C1367.02 720.588 1373.82 722.877 1379.42 719.17C1381.83 717.573 1383.96 715.071 1384.12 712.101C1384.27 711.833 1384.41 711.543 1384.5 711.219C1386.5 704.585 1379.39 700.029 1373.5 700.554C1366.7 701.168 1362.94 707.735 1364.97 714.111Z" fill="url(#paint3_linear)"/>
</g>
</g>
<defs>
<filter id="filter0_f" x="-461" y="-677" width="2113" height="1976.63" filterUnits="userSpaceOnUse" color-interpolation-filters="sRGB">
<feFlood flood-opacity="0" result="BackgroundImageFix"/>
<feBlend mode="normal" in="SourceGraphic" in2="BackgroundImageFix" result="shape"/>
<feGaussianBlur stdDeviation="200" result="effect1_foregroundBlur"/>
</filter>
<filter id="filter1_f" x="816.28" y="-297" width="1033.72" height="908.367" filterUnits="userSpaceOnUse" color-interpolation-filters="sRGB">
<feFlood flood-opacity="0" result="BackgroundImageFix"/>
<feBlend mode="normal" in="SourceGraphic" in2="BackgroundImageFix" result="shape"/>
<feGaussianBlur stdDeviation="10" result="effect1_foregroundBlur"/>
</filter>
<filter id="filter2_f" x="271" y="417" width="753" height="747" filterUnits="userSpaceOnUse" color-interpolation-filters="sRGB">
<feFlood flood-opacity="0" result="BackgroundImageFix"/>
<feBlend mode="normal" in="SourceGraphic" in2="BackgroundImageFix" result="shape"/>
<feGaussianBlur stdDeviation="15" result="effect1_foregroundBlur"/>
</filter>
<linearGradient id="paint0_linear" x1="1018.49" y1="69.9162" x2="389.815" y2="795.447" gradientUnits="userSpaceOnUse">
<stop stop-color="#1098F7"/>
<stop offset="1" stop-color="#205CF5"/>
</linearGradient>
<linearGradient id="paint1_linear" x1="1125.91" y1="150.922" x2="469.06" y2="765.51" gradientUnits="userSpaceOnUse">
<stop stop-color="white"/>
<stop offset="1" stop-color="#BCCEFD"/>
</linearGradient>
<linearGradient id="paint2_linear" x1="1417.82" y1="664.417" x2="1152.39" y2="870.954" gradientUnits="userSpaceOnUse">
<stop stop-color="#205CF5"/>
<stop offset="1" stop-color="#BCCEFD"/>
</linearGradient>
<linearGradient id="paint3_linear" x1="1202.68" y1="859.822" x2="1397.55" y2="651.552" gradientUnits="userSpaceOnUse">
<stop stop-color="white"/>
<stop offset="1" stop-color="#BCCEFD"/>
</linearGradient>
<clipPath id="clip0">
<rect width="1440" height="900" fill="white"/>
</clipPath>
</defs>
</svg>
