<svg width="30" height="30" viewBox="0 0 30 30" fill="none" xmlns="http://www.w3.org/2000/svg">
<rect width="30" height="30" rx="4" fill="white"/>
<path d="M17.1433 8.45874H20.0004C20.1899 8.45874 20.3715 8.54324 20.5055 8.69364C20.6394 8.84405 20.7147 9.04804 20.7147 9.26075V21.2908C20.7147 21.5035 20.6394 21.7075 20.5055 21.8579C20.3715 22.0083 20.1899 22.0928 20.0004 22.0928H10.0004C9.81098 22.0928 9.6293 22.0083 9.49534 21.8579C9.36139 21.7075 9.28613 21.5035 9.28613 21.2908V9.26075C9.28613 9.04804 9.36139 8.84405 9.49534 8.69364C9.6293 8.54324 9.81098 8.45874 10.0004 8.45874H12.8576" stroke="#205CF5" stroke-width="2" stroke-linecap="round" stroke-linejoin="round"/>
<path d="M12.8574 9.26075C12.8574 8.62264 13.0832 8.01066 13.485 7.55944C13.8869 7.10823 14.432 6.85474 15.0003 6.85474V6.85474C15.5686 6.85474 16.1136 7.10823 16.5155 7.55944C16.9174 8.01066 17.1431 8.62264 17.1431 9.26075V10.0628H12.8574V9.26075Z" stroke="#205CF5" stroke-width="2" stroke-linecap="round" stroke-linejoin="round"/>
</svg>
