<svg width="82" height="29" viewBox="0 0 82 29" fill="none" xmlns="http://www.w3.org/2000/svg">
<path d="M15.9484 26.2768H11.4685L8.4939 19.4866C8.42222 19.298 8.27886 18.9561 8.06383 18.461C7.87269 17.9423 7.64571 17.3646 7.38289 16.7281C7.14396 16.0679 6.89308 15.3959 6.63026 14.7122C6.36744 14.0285 6.12852 13.4037 5.91348 12.8378C5.91348 15.136 5.88105 13.7943 5.80596 16.0915C5.80596 17.4003 4.69491 18.461 3.36857 18.461H3.22825C1.75436 18.461 0.589448 17.228 0.692626 15.7771L1.45068 5.11754C1.56217 3.54977 2.88354 2.33415 4.4762 2.33415H4.59679C5.88988 2.33415 7.05269 3.11101 7.53292 4.29575L12.3287 16.1268C12.4959 16.5512 12.711 17.1524 12.9738 17.9305C13.2605 18.685 13.5353 19.5102 13.7981 20.4061C14.0609 19.5337 14.3237 18.7203 14.5866 17.9659C14.8733 17.1878 15.1122 16.5748 15.3033 16.1268L20.1209 4.24201C20.588 3.08973 21.7189 2.33415 22.9766 2.33415C24.6048 2.33415 25.9509 3.5863 26.0469 5.19019L27.3095 26.2768H21.7544L21.5394 21.4671C21.5155 21.0191 21.4916 20.4297 21.4677 19.6988C21.4677 18.9679 21.4677 18.2016 21.4677 17.4C21.4677 16.5748 21.4677 15.7614 21.4677 14.9598C21.4916 14.1346 21.5035 13.4272 21.5035 12.8378C21.3124 13.3329 21.0973 13.8988 20.8584 14.5354C20.6434 15.1484 20.4164 15.7496 20.1775 16.339C19.9385 16.9285 19.7116 17.4825 19.4965 18.0012C19.2815 18.4963 19.1142 18.8854 18.9948 19.1683L15.9484 26.2768Z" fill="white"/>
<path d="M32.0402 25.5341C31.1083 24.6145 30.8393 23.6951 30.8393 22.422V11.3171C30.8393 9.77404 32.1069 8.52317 33.6706 8.52317C35.2343 8.52317 36.5019 9.77404 36.5019 11.3171V20.8305C36.5019 21.3728 36.5855 21.7382 36.7528 21.9268C36.92 22.1154 37.1709 22.2098 37.5054 22.2098C37.6966 22.2098 41.0597 22.198 41.2509 22.1744C41.442 22.1272 41.1673 22.198 41.215 22.1744L38.939 25.5695C38.9151 25.5931 38.8076 25.652 38.6164 25.7463C38.4253 25.8171 38.1744 25.9114 37.8638 26.0293C36.3768 25.7817 35.2299 26.1 33.956 26.2823C32.8287 26.2768 32.4703 25.9585 32.0402 25.5341ZM33.7423 0C34.7458 0 35.5104 0.294715 36.036 0.884145C36.5617 1.47358 36.8245 2.21626 36.8245 3.1122C36.8245 4.03171 36.5497 4.79797 36.0002 5.41098C35.4745 6.02398 34.6741 6.33049 33.5989 6.33049C32.5955 6.33049 31.8189 6.03577 31.2694 5.44634C30.7438 4.83333 30.4809 4.11423 30.4809 3.28902C30.4809 2.34593 30.7557 1.56789 31.3052 0.954879C31.8548 0.318293 32.6671 0 33.7423 0Z" fill="white"/>
<path d="M39.9839 26.2768V23.1646L46.7934 12.6963C46.3394 12.7199 45.9093 12.7435 45.5032 12.7671C45.097 12.7671 44.6908 12.7671 44.2846 12.7671H42.7384C41.7266 12.7671 40.8618 12.0482 40.6899 11.0644C40.4709 9.8107 41.4492 8.66463 42.7384 8.66463H50.722C52.2141 8.66463 53.4236 9.8582 53.4236 11.3305C53.4236 11.8302 53.2813 12.3198 53.013 12.7435L46.9726 22.2805C47.2832 22.2569 47.5818 22.2451 47.8685 22.2451C48.1791 22.2215 48.5017 22.2098 48.8362 22.2098H61.2122V26.2768H39.9839Z" fill="white"/>
<path d="M65.3695 11.3171C65.3695 9.77404 66.6371 8.52317 68.2008 8.52317C69.7645 8.52317 71.0321 9.77404 71.0321 11.3171V17.7537C71.0321 19.1683 70.5673 25.3927 74.8322 25.4634C75.0233 26.4065 71.308 25.322 71.5708 25.8878C71.8575 26.5715 70.3512 25.4634 71.3188 26.2768L74.8322 29C69.8864 29 68.0216 26.0764 67.8066 25.7463C67.6154 25.487 67.4243 25.1569 67.2332 24.7561C67.042 24.3317 66.9954 24.3789 66.8759 23.8366C66.2547 24.9447 65.9082 25.3183 64.7255 25.8878C63.9177 26.2768 62.4785 26.2768 61.2122 26.2768C60.2804 26.2768 58.6329 26.2768 58.0595 26.2768C57.4144 25.9703 57.0907 25.3455 56.6606 24.8268C56.2544 24.2846 55.9558 23.6362 55.7646 22.8817C55.5974 22.1272 55.5138 21.2785 55.5138 20.3354V11.3348C55.5138 9.78196 56.7894 8.52317 58.363 8.52317C59.9366 8.52317 61.2122 9.78196 61.2122 11.3348V19.5927C61.2122 20.4179 61.3078 21.0898 61.4989 21.6085C61.7139 22.1037 62.0962 22.3512 62.6457 22.3512C63.3147 22.3512 64.1521 22.0565 64.7255 21.1841C65.299 20.2882 65.3695 18.9207 65.3695 17.3646V11.3171Z" fill="white"/>
<path d="M33.9039 23.1646H40.7133V26.2768H33.9039V23.1646Z" fill="white"/>
<path d="M5.02153 21.3831C4.54638 20.8497 3.85524 20.5829 2.94813 20.5829C1.97622 20.5829 1.24188 20.871 0.745131 21.4471C0.248377 22.0019 0 22.7061 0 23.5596C0 24.3064 0.237578 24.9572 0.712734 25.512C1.20949 26.0455 1.91142 26.3122 2.81854 26.3122C3.79045 26.3122 4.51398 26.0348 4.98914 25.48C5.48589 24.9252 5.73427 24.2317 5.73427 23.3995C5.73427 22.5887 5.49669 21.9166 5.02153 21.3831Z" fill="white"/>
<path fill-rule="evenodd" clip-rule="evenodd" d="M69.0262 19.1683C70.0159 19.1683 70.8182 19.96 70.8182 20.9366C70.8182 23.663 72.7338 25.4634 74.6171 25.4634C76.5005 25.4634 78.4161 23.663 78.4161 20.9366C78.4161 19.96 79.2184 19.1683 80.208 19.1683C81.1977 19.1683 82 19.96 82 20.9366C82 25.1635 78.9094 29 74.6171 29C70.3249 29 67.2343 25.1635 67.2343 20.9366C67.2343 19.96 68.0366 19.1683 69.0262 19.1683Z" fill="white"/>
</svg>
