<svg width="23" height="22" viewBox="0 0 23 22" fill="none" xmlns="http://www.w3.org/2000/svg">
<path d="M7.36025 17.7154C7.36025 17.8066 7.25805 17.879 7.12936 17.879C6.98301 17.8926 6.88082 17.8202 6.88082 17.7154C6.88082 17.6241 6.98301 17.5517 7.1117 17.5517C7.24481 17.5381 7.36025 17.6105 7.36025 17.7154ZM5.98063 17.5109C5.94972 17.6021 6.03804 17.705 6.16988 17.7341C6.21832 17.7584 6.27406 17.7625 6.32536 17.7455C6.37666 17.7284 6.41952 17.6917 6.44492 17.6429C6.47142 17.5517 6.38752 17.4488 6.25567 17.4061C6.20514 17.3875 6.14983 17.3878 6.0995 17.407C6.04918 17.4262 6.00708 17.463 5.98063 17.5109ZM7.94124 17.4333C7.81507 17.465 7.7236 17.5517 7.73748 17.6565C7.75073 17.7477 7.86364 17.8066 7.99927 17.7749C8.1349 17.7432 8.21691 17.6565 8.20303 17.5659C8.18915 17.4753 8.06992 17.4197 7.94124 17.4333ZM10.8594 0.00162045C9.4283 -0.0292625 8.00582 0.236463 6.67721 0.782877C5.34861 1.32929 4.14122 2.14515 3.12739 3.18157C2.11356 4.21798 1.31414 5.45363 0.777051 6.81448C0.239957 8.17533 -0.0237668 9.63338 0.00168094 11.1013C-0.0168809 13.4946 0.699198 15.8334 2.0485 17.7862C3.39781 19.739 5.31195 21.207 7.51985 21.9822C8.08759 22.087 8.28693 21.7273 8.28693 21.4316C8.28693 21.1495 8.27368 19.5935 8.27368 18.6386C8.27368 18.6386 5.16876 19.3212 4.51712 17.2799C4.51712 17.2799 4.01246 15.9562 3.28386 15.6153C3.28386 15.6153 2.26823 14.9036 3.35514 14.9146C3.70915 14.9638 4.04749 15.0954 4.34425 15.2994C4.641 15.5034 4.8883 15.7743 5.0672 16.0914C5.21525 16.375 5.41728 16.6253 5.66132 16.8274C5.90537 17.0295 6.18647 17.1793 6.48798 17.268C6.7895 17.3567 7.10529 17.3824 7.41668 17.3437C7.72806 17.305 8.02871 17.2025 8.30081 17.0425C8.35803 16.4628 8.60872 15.9211 9.01048 15.5091C6.53134 15.2271 4.02697 14.8589 4.02697 10.4821C4.0023 9.98449 4.08308 9.48731 4.26375 9.0248C4.44441 8.56229 4.72068 8.14543 5.07351 7.80294C4.73719 6.79431 4.77834 5.6935 5.18895 4.71424C6.11626 4.41857 8.24971 5.94351 8.24971 5.94351C10.0726 5.42799 11.9976 5.42799 13.8205 5.94351C13.8205 5.94351 15.954 4.41469 16.8813 4.71424C17.2921 5.69346 17.3332 6.79434 16.9967 7.80294C17.3627 8.13996 17.6542 8.5534 17.8516 9.01549C18.049 9.47759 18.1477 9.97765 18.141 10.4821C18.141 14.8719 15.5288 15.2225 13.049 15.5091C13.3163 15.7842 13.5223 16.1152 13.653 16.4797C13.7836 16.8441 13.8359 17.2332 13.806 17.6203C13.806 19.1536 13.7928 21.0493 13.7928 21.4232C13.7928 21.7189 13.9965 22.0786 14.5598 21.9738C16.7606 21.2001 18.666 19.7318 20.0032 17.7792C21.3403 15.8267 22.0406 13.4902 22.0036 11.1045C22.0017 4.79123 17.0119 0.00162045 10.8594 0.00162045ZM4.31273 15.691C4.25533 15.7362 4.26858 15.8411 4.34364 15.9277C4.41493 16.0002 4.51649 16.0326 4.57453 15.973C4.63193 15.9277 4.61868 15.8229 4.54362 15.7362C4.47233 15.6638 4.37077 15.6321 4.31273 15.691ZM3.83394 15.3222C3.80303 15.381 3.84719 15.4516 3.93613 15.4994C3.9504 15.5106 3.96674 15.5187 3.98416 15.5232C4.00158 15.5276 4.0197 15.5284 4.03742 15.5254C4.05514 15.5225 4.07208 15.5158 4.08721 15.5059C4.10233 15.496 4.11532 15.483 4.12538 15.4677C4.15629 15.4089 4.11213 15.3383 4.02319 15.2905C3.93613 15.2633 3.86485 15.2762 3.83394 15.3222ZM5.27096 16.9396C5.19967 16.9985 5.2268 17.1337 5.32836 17.2217C5.43055 17.3265 5.55924 17.3401 5.61665 17.267C5.67405 17.2081 5.64756 17.0729 5.55924 16.9849C5.46147 16.8827 5.32899 16.8691 5.27096 16.9422V16.9396ZM4.7663 16.2706C4.69501 16.3159 4.69501 16.4343 4.7663 16.5391C4.83758 16.644 4.95554 16.6892 5.01484 16.644C5.04947 16.6056 5.0687 16.5552 5.0687 16.5029C5.0687 16.4506 5.04947 16.4003 5.01484 16.3619C4.95176 16.2596 4.83632 16.2144 4.76567 16.2732L4.7663 16.2706Z" fill="#205CF5"/>
</svg>
