<svg width="105" height="38" viewBox="0 0 105 38" fill="none" xmlns="http://www.w3.org/2000/svg">
<path fill-rule="evenodd" clip-rule="evenodd" d="M45.2182 36.9401C43.8941 35.6277 43.512 34.3156 43.512 32.4986V16.6863C43.512 14.4646 45.313 12.6635 47.5348 12.6635C49.7565 12.6635 51.5576 14.4646 51.5576 16.6863V30.2274C51.5576 31.0013 51.6764 31.5229 51.914 31.792C52.1516 32.0612 52.5081 32.1958 52.9834 32.1958C53.1874 32.1958 55.9367 32.1863 57.4059 32.1673L66.18 18.6191C65.535 18.6527 64.9239 18.6864 64.3468 18.72H62.6155H60.3928C58.9696 18.72 57.7526 17.6965 57.5087 16.2944C57.1973 14.504 58.5754 12.8654 60.3928 12.8654H71.8023C73.8999 12.8654 75.6004 14.5659 75.6004 16.6636C75.6004 17.3806 75.3975 18.083 75.015 18.6895L66.4346 32.2967C66.8759 32.2631 67.3002 32.2463 67.7076 32.2463C68.1489 32.2126 68.6072 32.1958 69.0825 32.1958H78.7516C78.6307 31.3726 78.5702 30.481 78.5702 29.5208V16.7118C78.5702 14.476 80.3827 12.6635 82.6184 12.6635C84.8542 12.6635 86.6667 14.476 86.6667 16.7118V28.461C86.6667 29.6386 86.8025 30.5976 87.0741 31.3378C87.3796 32.0444 87.9228 32.3977 88.7036 32.3977C89.6541 32.3977 90.5367 31.7752 91.3515 30.5303C92.1662 29.2517 92.5736 27.502 92.5736 25.2813V16.6863C92.5736 14.4646 94.3746 12.6635 96.5964 12.6635C98.8181 12.6635 100.619 14.4646 100.619 16.6863V25.8365C100.619 27.8553 100.755 29.5377 101.027 30.8836C101.298 32.2295 101.621 33.3062 101.994 34.1137C102.401 35.0895 103.625 36.8391 105 38L105 38H96.5862C96.4029 37.7779 96.2196 37.5256 96.0362 37.2429C95.7647 36.8728 95.4931 36.4017 95.2215 35.8297C94.9499 35.2241 94.7293 34.5343 94.5595 33.7604C93.6769 35.3418 92.9131 36.6541 91.3515 37.3943C90.3329 37.8654 89.3898 37.9776 88.341 38H86.694C86.6849 38 86.6758 38 86.6667 38H82.1872H57.5412H56.5049H47.9945L47.9944 38H47.6251C46.268 37.9368 45.7873 37.5041 45.2182 36.9401ZM47.6366 0.5C49.0624 0.5 50.1487 0.920592 50.8956 1.76177C51.6424 2.60296 52.0159 3.66285 52.0159 4.94145C52.0159 6.2537 51.6255 7.34724 50.8447 8.22207C50.0978 9.0969 48.9606 9.53432 47.4329 9.53432C46.0071 9.53432 44.9038 9.11372 44.123 8.27254C43.3762 7.39771 43.0028 6.37146 43.0028 5.19381C43.0028 3.84791 43.3932 2.73755 44.1739 1.86272C44.9547 0.954239 46.109 0.5 47.6366 0.5ZM22.3545 38H15.9893L11.7629 28.3095C11.661 28.0404 11.4573 27.5525 11.1518 26.8459C10.8802 26.1056 10.5577 25.2813 10.1843 24.3728C9.84481 23.4307 9.48836 22.4717 9.11494 21.4959C8.74151 20.5202 8.40204 19.6285 8.09651 18.821V21.8492V25.3317C8.09651 26.5094 8.07954 27.6198 8.04559 28.6628C8.04559 29.7059 8.02861 30.5303 7.99467 31.1359L7.74006 38H0L1.78614 8.03687C1.92696 5.67466 3.8837 3.83109 6.2501 3.83109C8.07366 3.83109 9.71456 4.93836 10.397 6.6294L17.2114 23.5148C17.4491 24.1204 17.7546 24.9785 18.128 26.0888C18.5354 27.1655 18.9258 28.3432 19.2992 29.6218C19.6727 28.3768 20.0461 27.216 20.4195 26.1393C20.8269 25.0289 21.1663 24.1541 21.4379 23.5148L28.2762 6.57028C28.9442 4.91496 30.5505 3.83109 32.3355 3.83109C34.6519 3.83109 36.5673 5.63571 36.7052 7.94801L38.4966 38H30.6038L30.2983 31.1359C30.2643 30.4966 30.2304 29.6554 30.1964 28.6124V25.3317V21.8492C30.2304 20.6716 30.2473 19.6622 30.2473 18.821C29.9758 19.5276 29.6702 20.3351 29.3307 21.2436C29.0252 22.1184 28.7027 22.9764 28.3632 23.8176C28.0238 24.6588 27.7013 25.4495 27.3957 26.1898C27.0902 26.8964 26.8526 27.4515 26.6828 27.8553L22.3545 38Z" fill="#205CF5"/>
</svg>
