<svg width="91" height="33" viewBox="0 0 91 33" fill="none" xmlns="http://www.w3.org/2000/svg">
<path d="M17.6989 29.9012H12.7273L9.42616 22.1744C9.34661 21.9598 9.18752 21.5707 8.94888 21.0073C8.73676 20.4171 8.48487 19.7598 8.1932 19.0354C7.92805 18.2841 7.64964 17.5195 7.35797 16.7415C7.06631 15.9634 6.80116 15.2524 6.56252 14.6085C6.56252 17.2237 6.52653 15.697 6.4432 18.311C6.4432 19.8003 5.21021 21.0073 3.7383 21.0073H3.58258C1.94691 21.0073 0.654144 19.6042 0.768646 17.9532L1.6099 5.82341C1.73363 4.03939 3.20002 2.6561 4.96749 2.6561H5.10132C6.53632 2.6561 7.82676 3.54011 8.35971 4.88827L13.6818 18.3512C13.8674 18.8341 14.1061 19.5183 14.3977 20.4037C14.7159 21.2622 15.0209 22.2012 15.3125 23.2207C15.6042 22.228 15.8958 21.3024 16.1875 20.4439C16.5057 19.5585 16.7709 18.861 16.983 18.3512L22.3293 4.82711C22.8476 3.51589 24.1027 2.6561 25.4984 2.6561C27.3053 2.6561 28.7991 4.08096 28.9057 5.90608L30.3068 29.9012H24.1421L23.9034 24.428C23.8769 23.9183 23.8504 23.2476 23.8239 22.4159C23.8239 21.5841 23.8239 20.7122 23.8239 19.8C23.8239 18.861 23.8239 17.9354 23.8239 17.0232C23.8504 16.0841 23.8637 15.2793 23.8637 14.6085C23.6515 15.172 23.4129 15.8159 23.1477 16.5402C22.9091 17.2378 22.6572 17.922 22.3921 18.5927C22.1269 19.2634 21.875 19.8939 21.6364 20.4841C21.3977 21.0476 21.2121 21.4902 21.0796 21.8122L17.6989 29.9012Z" fill="#205CF5"/>
<path d="M35.5568 29.0561C34.5226 28.0097 34.2241 26.9634 34.2241 25.5146V12.878C34.2241 11.1222 35.6309 9.69878 37.3662 9.69878C39.1015 9.69878 40.5082 11.1222 40.5082 12.878V23.7037C40.5082 24.3207 40.601 24.7366 40.7866 24.9512C40.9722 25.1659 41.2506 25.2732 41.6219 25.2732C41.834 25.2732 45.5663 25.2598 45.7784 25.2329C45.9905 25.1793 45.6856 25.2598 45.7387 25.2329L43.2128 29.0963C43.1863 29.1232 43.0669 29.1902 42.8548 29.2976C42.6427 29.378 42.3643 29.4854 42.0196 29.6195C40.3693 29.3378 39.0966 29.7 37.6829 29.9075C36.4318 29.9012 36.0341 29.539 35.5568 29.0561ZM37.4457 0C38.5594 0 39.4078 0.335366 39.9912 1.0061C40.5745 1.67683 40.8662 2.52195 40.8662 3.54146C40.8662 4.5878 40.5613 5.45976 39.9514 6.15732C39.3681 6.85488 38.4798 7.20366 37.2866 7.20366C36.173 7.20366 35.3113 6.86829 34.7014 6.19756C34.1181 5.5 33.8264 4.68171 33.8264 3.74268C33.8264 2.66951 34.1313 1.78415 34.7412 1.08659C35.351 0.362195 36.2525 0 37.4457 0Z" fill="#205CF5"/>
<path d="M44.3724 29.9012V26.3598L51.9292 14.4476C51.4254 14.4744 50.9482 14.5012 50.4974 14.528C50.0466 14.528 49.5959 14.528 49.1451 14.528H47.4292C46.3064 14.528 45.3467 13.7101 45.1559 12.5905C44.9128 11.1639 45.9985 9.85976 47.4292 9.85976H56.2891C57.9449 9.85976 59.2872 11.218 59.2872 12.8934C59.2872 13.4619 59.1293 14.0191 58.8315 14.5012L52.1281 25.3537C52.4728 25.3268 52.8042 25.3134 53.1224 25.3134C53.4671 25.2866 53.825 25.2732 54.1963 25.2732H67.9306V29.9012H44.3724Z" fill="#205CF5"/>
<path d="M72.5442 12.878C72.5442 11.1222 73.951 9.69878 75.6863 9.69878C77.4216 9.69878 78.8283 11.1222 78.8283 12.878V20.2024C78.8283 21.8122 78.3125 28.8951 83.0455 28.9756C83.2576 30.0488 79.1345 28.8146 79.4261 29.4585C79.7443 30.2366 78.0726 28.9756 79.1465 29.9012L83.0455 33C77.5568 33 75.4874 29.6732 75.2488 29.2976C75.0367 29.0024 74.8245 28.6268 74.6124 28.1707C74.4003 27.6878 74.3485 27.7415 74.2159 27.1244C73.5265 28.3854 73.1421 28.8104 71.8296 29.4585C70.9331 29.9012 69.3359 29.9012 67.9306 29.9012C66.8965 29.9012 65.0682 29.9012 64.4318 29.9012C63.7159 29.5524 63.3567 28.8415 62.8795 28.2512C62.4287 27.6341 62.0973 26.8963 61.8851 26.0378C61.6995 25.1793 61.6067 24.2134 61.6067 23.1402V12.8982C61.6067 11.1312 63.0224 9.69878 64.7687 9.69878C66.5149 9.69878 67.9306 11.1312 67.9306 12.8982V22.2951C67.9306 23.2341 68.0367 23.9988 68.2488 24.589C68.4874 25.1524 68.9117 25.4341 69.5215 25.4341C70.2639 25.4341 71.1932 25.0988 71.8296 24.1061C72.4659 23.0866 72.5442 21.5305 72.5442 19.7598V12.878Z" fill="#205CF5"/>
<path d="M37.625 26.3598H45.1818V29.9012H37.625V26.3598Z" fill="#205CF5"/>
<path d="M5.57268 24.3325C5.04537 23.7255 4.27838 23.422 3.2717 23.422C2.19312 23.422 1.37819 23.7497 0.826913 24.4053C0.275638 25.0367 0 25.8379 0 26.8092C0 27.659 0.263653 28.3996 0.79096 29.0309C1.34224 29.6379 2.12121 29.9415 3.12789 29.9415C4.20647 29.9415 5.00942 29.6258 5.53672 28.9945C6.088 28.3632 6.36364 27.574 6.36364 26.6271C6.36364 25.7044 6.09998 24.9395 5.57268 24.3325Z" fill="#205CF5"/>
<path fill-rule="evenodd" clip-rule="evenodd" d="M76.6023 21.8122C77.7006 21.8122 78.5909 22.7131 78.5909 23.8244C78.5909 26.9269 80.7168 28.9756 82.8068 28.9756C84.8969 28.9756 87.0227 26.9269 87.0227 23.8244C87.0227 22.7131 87.9131 21.8122 89.0114 21.8122C90.1097 21.8122 91 22.7131 91 23.8244C91 28.6344 87.5701 33 82.8068 33C78.0435 33 74.6136 28.6344 74.6136 23.8244C74.6136 22.7131 75.504 21.8122 76.6023 21.8122Z" fill="#205CF5"/>
</svg>
