<svg width="1866" height="1469" viewBox="0 0 1866 1469" fill="none" xmlns="http://www.w3.org/2000/svg">
<g filter="url(#filter0_d)">
<path d="M1297.8 1033H1186.53L1112.64 863.121C1110.86 858.402 1107.3 849.849 1101.96 837.462C1097.21 824.485 1091.57 810.034 1085.04 794.108C1079.11 777.592 1072.88 760.781 1066.35 743.675C1059.82 726.569 1053.88 710.938 1048.54 696.781C1048.54 712.118 1048.54 729.813 1048.54 749.869C1048.54 769.924 1048.54 790.274 1048.54 810.919C1048.54 831.564 1048.25 851.029 1047.65 869.315C1047.65 887.6 1047.36 902.052 1046.76 912.669L1042.31 1033H907L938.233 507.607C940.69 466.266 974.89 434 1016.25 434C1048.14 434 1076.82 453.394 1088.74 483.007L1207.89 779.066C1212.05 789.684 1217.39 804.725 1223.92 824.191C1231.04 843.066 1237.86 863.711 1244.39 886.126C1250.92 864.301 1257.45 843.951 1263.97 825.075C1271.1 805.61 1277.03 790.274 1281.78 779.066L1401.35 481.972C1413.01 452.985 1441.09 434 1472.31 434C1512.79 434 1546.27 465.585 1548.67 506.052L1580 1033H1442.02L1436.68 912.669C1436.08 901.462 1435.49 886.715 1434.9 868.43C1434.9 850.144 1434.9 830.974 1434.9 810.919C1434.9 790.274 1434.9 769.924 1434.9 749.869C1435.49 729.224 1435.79 711.528 1435.79 696.781C1431.04 709.168 1425.7 723.325 1419.76 739.251C1414.42 754.587 1408.78 769.629 1402.85 784.375C1396.91 799.122 1391.28 812.983 1385.93 825.96C1380.59 838.347 1376.44 848.08 1373.47 855.158L1297.8 1033Z" fill="url(#paint0_linear)"/>
</g>
<g filter="url(#filter1_d)">
<path d="M467.502 347.012C467.502 319.438 489.855 297.085 517.428 297.085H998.282C1025.86 297.085 1048.21 319.438 1048.21 347.012V1127.74C1048.21 1155.31 1025.86 1177.66 998.282 1177.66H717.134C579.266 1177.66 467.502 1065.9 467.502 928.032V347.012Z" fill="url(#paint1_linear)"/>
</g>
<path d="M669.797 427.93C669.797 400.356 692.15 378.003 719.723 378.003H1048.21V1101.51H769.65C714.503 1101.51 669.797 1056.8 669.797 1001.65V427.93Z" fill="url(#paint2_linear)"/>
<path d="M912.551 539.735C912.551 484.588 957.257 439.882 1012.4 439.882H1048.21V1037.25H912.551V539.735Z" fill="url(#paint3_linear)"/>
<path d="M314.229 403.466C314.229 382.763 331.013 365.979 351.716 365.979H503.688C524.391 365.979 541.175 382.763 541.175 403.466C541.175 424.169 524.391 440.952 503.688 440.952H351.716C331.013 440.952 314.229 424.169 314.229 403.466Z" fill="#BCCEFD"/>
<path d="M399.646 529.12C399.646 508.267 416.551 491.362 437.405 491.362H554.9C575.754 491.362 592.659 508.267 592.659 529.12C592.659 549.974 575.754 566.879 554.9 566.879H437.405C416.551 566.879 399.646 549.974 399.646 529.12Z" fill="white"/>
<path d="M399.646 528.93C399.646 507.939 416.663 490.923 437.654 490.923H468.068V566.938H437.654C416.663 566.938 399.646 549.921 399.646 528.93Z" fill="#BCCEFD"/>
<path d="M618.215 528.93C618.215 507.939 635.232 490.923 656.223 490.923H943.222C964.213 490.923 981.229 507.939 981.229 528.93C981.229 549.921 964.212 566.938 943.222 566.938H656.222C635.232 566.938 618.215 549.921 618.215 528.93Z" fill="#205CF5"/>
<path d="M618.215 528.93C618.215 507.939 635.232 490.923 656.223 490.923H669.531V566.938H656.223C635.232 566.938 618.215 549.921 618.215 528.93Z" fill="white"/>
<path d="M422.453 654.355C422.453 633.364 439.47 616.347 460.461 616.347H502.283C523.274 616.347 540.29 633.364 540.29 654.355C540.29 675.346 523.274 692.362 502.283 692.362H460.461C439.47 692.362 422.453 675.346 422.453 654.355Z" fill="#BCCEFD"/>
<path d="M314.229 764.147C314.229 743.444 331.013 726.661 351.716 726.661H503.688C524.391 726.661 541.175 743.444 541.175 764.147C541.175 784.851 524.391 801.634 503.688 801.634H351.716C331.013 801.634 314.229 784.851 314.229 764.147Z" fill="#BCCEFD"/>
<g filter="url(#filter2_d)">
<path d="M281.809 998.322C281.809 977.331 298.826 960.315 319.817 960.315H321.726C342.717 960.315 359.734 977.331 359.734 998.322C359.734 1019.31 342.717 1036.33 321.726 1036.33H319.817C298.826 1036.33 281.809 1019.31 281.809 998.322Z" fill="#F7B202"/>
</g>
<g filter="url(#filter3_d)">
<path d="M172.388 403.987C172.388 382.996 189.405 365.979 210.396 365.979H212.305C233.296 365.979 250.313 382.996 250.313 403.987C250.313 424.978 233.296 441.994 212.305 441.994H210.396C189.405 441.994 172.388 424.978 172.388 403.987Z" fill="#DB2156"/>
</g>
<path d="M508.753 873.567C508.753 852.864 525.537 836.081 546.24 836.081H580.687C601.39 836.081 618.174 852.864 618.174 873.567C618.174 894.27 601.39 911.054 580.687 911.054H546.24C525.537 911.054 508.753 894.27 508.753 873.567Z" fill="#DB2156"/>
<path d="M614.414 998.57C614.414 977.717 631.319 960.811 652.173 960.811H660.574C681.427 960.811 698.333 977.717 698.333 998.57C698.333 1019.42 681.427 1036.33 660.574 1036.33H652.173C631.319 1036.33 614.414 1019.42 614.414 998.57Z" fill="#F7B202"/>
<path d="M669.531 960.315C685.276 960.315 698.04 973.079 698.04 988.824V1007.82C698.04 1023.57 685.276 1036.33 669.531 1036.33V960.315Z" fill="white"/>
<path d="M508.753 654.727C508.753 634.024 525.537 617.24 546.24 617.24H554.345C575.048 617.24 591.832 634.024 591.832 654.727C591.832 675.43 575.048 692.213 554.345 692.213H546.24C525.537 692.213 508.753 675.43 508.753 654.727Z" fill="white"/>
<path d="M618.215 654.355C618.215 633.364 635.232 616.347 656.223 616.347H793.074C814.065 616.347 831.082 633.364 831.082 654.355C831.082 675.346 814.065 692.362 793.074 692.362H656.223C635.232 692.362 618.215 675.346 618.215 654.355Z" fill="white"/>
<path d="M669.531 616.347H813.981C834.972 616.347 851.989 633.364 851.989 654.355C851.989 675.346 834.972 692.362 813.981 692.362H669.531V616.347Z" fill="#205CF5"/>
<path d="M508.74 764.065C508.74 743.211 525.645 726.306 546.499 726.306H705.953C726.807 726.306 743.712 743.211 743.712 764.065C743.712 784.919 726.807 801.824 705.953 801.824H546.499C525.645 801.824 508.74 784.919 508.74 764.065Z" fill="white"/>
<path d="M634.385 872.554C634.385 851.291 651.621 834.055 672.884 834.055H782.304C803.567 834.055 820.804 851.291 820.804 872.554C820.804 893.817 803.567 911.054 782.304 911.054H672.884C651.621 911.054 634.385 893.817 634.385 872.554Z" fill="white"/>
<path d="M844.386 872.897C844.386 851.906 861.403 834.89 882.394 834.89H907.11C928.101 834.89 945.118 851.906 945.118 872.897C945.118 893.888 928.101 910.905 907.11 910.905H882.394C861.403 910.905 844.386 893.888 844.386 872.897Z" fill="white"/>
<path d="M878.597 834.89H907.11C928.101 834.89 945.118 851.906 945.118 872.897C945.118 893.888 928.101 910.905 907.11 910.905H878.597V834.89Z" fill="#205CF5"/>
<path d="M724.648 998.322C724.648 977.331 741.665 960.315 762.656 960.315H967.929C988.92 960.315 1005.94 977.331 1005.94 998.322C1005.94 1019.31 988.92 1036.33 967.929 1036.33H762.656C741.665 1036.33 724.648 1019.31 724.648 998.322Z" fill="white"/>
<path d="M878.597 960.315H967.929C988.92 960.315 1005.94 977.331 1005.94 998.322C1005.94 1019.31 988.92 1036.33 967.929 1036.33H878.597V960.315Z" fill="#205CF5"/>
<defs>
<filter id="filter0_d" x="847" y="394" width="793" height="719" filterUnits="userSpaceOnUse" color-interpolation-filters="sRGB">
<feFlood flood-opacity="0" result="BackgroundImageFix"/>
<feColorMatrix in="SourceAlpha" type="matrix" values="0 0 0 0 0 0 0 0 0 0 0 0 0 0 0 0 0 0 127 0"/>
<feOffset dy="20"/>
<feGaussianBlur stdDeviation="30"/>
<feColorMatrix type="matrix" values="0 0 0 0 0.12549 0 0 0 0 0.360784 0 0 0 0 0.960784 0 0 0 0.4 0"/>
<feBlend mode="normal" in2="BackgroundImageFix" result="effect1_dropShadow"/>
<feBlend mode="normal" in="SourceGraphic" in2="effect1_dropShadow" result="shape"/>
</filter>
<filter id="filter1_d" x="217.502" y="147.085" width="980.706" height="1280.58" filterUnits="userSpaceOnUse" color-interpolation-filters="sRGB">
<feFlood flood-opacity="0" result="BackgroundImageFix"/>
<feColorMatrix in="SourceAlpha" type="matrix" values="0 0 0 0 0 0 0 0 0 0 0 0 0 0 0 0 0 0 127 0"/>
<feOffset dx="-50" dy="50"/>
<feGaussianBlur stdDeviation="100"/>
<feColorMatrix type="matrix" values="0 0 0 0 0.286275 0 0 0 0 0.27451 0 0 0 0 0.466667 0 0 0 0.2 0"/>
<feBlend mode="normal" in2="BackgroundImageFix" result="effect1_dropShadow"/>
<feBlend mode="normal" in="SourceGraphic" in2="effect1_dropShadow" result="shape"/>
</filter>
<filter id="filter2_d" x="221.809" y="920.315" width="197.924" height="196.015" filterUnits="userSpaceOnUse" color-interpolation-filters="sRGB">
<feFlood flood-opacity="0" result="BackgroundImageFix"/>
<feColorMatrix in="SourceAlpha" type="matrix" values="0 0 0 0 0 0 0 0 0 0 0 0 0 0 0 0 0 0 127 0"/>
<feOffset dy="20"/>
<feGaussianBlur stdDeviation="30"/>
<feColorMatrix type="matrix" values="0 0 0 0 0.968627 0 0 0 0 0.698039 0 0 0 0 0.00784314 0 0 0 0.6 0"/>
<feBlend mode="normal" in2="BackgroundImageFix" result="effect1_dropShadow"/>
<feBlend mode="normal" in="SourceGraphic" in2="effect1_dropShadow" result="shape"/>
</filter>
<filter id="filter3_d" x="112.388" y="325.979" width="197.924" height="196.015" filterUnits="userSpaceOnUse" color-interpolation-filters="sRGB">
<feFlood flood-opacity="0" result="BackgroundImageFix"/>
<feColorMatrix in="SourceAlpha" type="matrix" values="0 0 0 0 0 0 0 0 0 0 0 0 0 0 0 0 0 0 127 0"/>
<feOffset dy="20"/>
<feGaussianBlur stdDeviation="30"/>
<feColorMatrix type="matrix" values="0 0 0 0 0.858824 0 0 0 0 0.129412 0 0 0 0 0.337255 0 0 0 0.5 0"/>
<feBlend mode="normal" in2="BackgroundImageFix" result="effect1_dropShadow"/>
<feBlend mode="normal" in="SourceGraphic" in2="effect1_dropShadow" result="shape"/>
</filter>
<linearGradient id="paint0_linear" x1="1243.5" y1="638.658" x2="1243.5" y2="1266.36" gradientUnits="userSpaceOnUse">
<stop stop-color="#205CF5"/>
<stop offset="1" stop-color="white"/>
</linearGradient>
<linearGradient id="paint1_linear" x1="468.432" y1="718.809" x2="765.024" y2="1188.88" gradientUnits="userSpaceOnUse">
<stop stop-color="#BCCEFD"/>
<stop offset="1" stop-color="white"/>
</linearGradient>
<linearGradient id="paint2_linear" x1="752.206" y1="468.107" x2="910.682" y2="1088.7" gradientUnits="userSpaceOnUse">
<stop stop-color="#494677"/>
<stop offset="1" stop-color="#BCCEFD"/>
</linearGradient>
<linearGradient id="paint3_linear" x1="980.252" y1="720.122" x2="1037.46" y2="1036.32" gradientUnits="userSpaceOnUse">
<stop stop-color="#0C0B1A"/>
<stop offset="1" stop-color="#494677"/>
</linearGradient>
</defs>
</svg>
