<svg width="101" height="39" viewBox="0 0 101 39" fill="none" xmlns="http://www.w3.org/2000/svg">
<path d="M45.335 22.6665H41.5596L39.0527 16.8092C38.9923 16.6465 38.8715 16.3516 38.6903 15.9245C38.5292 15.4771 38.3379 14.9788 38.1164 14.4297C37.9151 13.8602 37.7037 13.2806 37.4822 12.6908C37.2607 12.101 37.0593 11.562 36.8781 11.0739C36.8781 13.0563 36.8508 11.899 36.7875 13.8805C36.7875 15.0095 35.8512 15.9245 34.7334 15.9245H34.6151C33.373 15.9245 32.3913 14.8609 32.4782 13.6094L33.1171 4.41441C33.211 3.06204 34.3246 2.01344 35.6668 2.01344H35.7685C36.8582 2.01344 37.8382 2.68357 38.2429 3.70553L42.2845 13.911C42.4254 14.2771 42.6067 14.7957 42.8282 15.4669C43.0698 16.1177 43.3013 16.8295 43.5228 17.6024C43.7443 16.8499 43.9658 16.1482 44.1873 15.4974C44.4289 14.8262 44.6303 14.2975 44.7914 13.911L48.8514 3.65917C49.245 2.66521 50.1981 2.01344 51.258 2.01344C52.6301 2.01344 53.7645 3.09355 53.8455 4.47707L54.9095 22.6665H50.228L50.0468 18.5176C50.0266 18.1311 50.0065 17.6227 49.9864 16.9922C49.9864 16.3618 49.9864 15.7008 49.9864 15.0093C49.9864 14.2975 49.9864 13.5958 49.9864 12.9043C50.0065 12.1925 50.0166 11.5824 50.0166 11.0739C49.8555 11.501 49.6742 11.9891 49.4729 12.5382C49.2917 13.067 49.1004 13.5856 48.899 14.0941C48.6977 14.6025 48.5064 15.0805 48.3252 15.5279C48.1439 15.955 48.003 16.2906 47.9023 16.5346L45.335 22.6665Z" fill="white"/>
<path d="M58.8963 22.0258C58.111 21.2326 57.8843 20.4395 57.8843 19.3412V9.76214C57.8843 8.43112 58.9526 7.35211 60.2704 7.35211C61.5881 7.35211 62.6564 8.43112 62.6564 9.76214V17.9684C62.6564 18.4362 62.7269 18.7514 62.8678 18.9141C63.0088 19.0768 63.2202 19.1582 63.5021 19.1582C63.6632 19.1582 66.4975 19.148 66.6586 19.1277C66.8197 19.087 66.5881 19.148 66.6284 19.1277L64.7102 22.0563C64.6901 22.0767 64.5995 22.1275 64.4384 22.2089C64.2773 22.2699 64.0659 22.3512 63.8041 22.4529C62.5509 22.2394 61.5844 22.5139 60.5109 22.6712C59.5608 22.6665 59.2588 22.3919 58.8963 22.0258ZM60.3308 0C61.1765 0 61.8208 0.254222 62.2638 0.762666C62.7068 1.27111 62.9282 1.91175 62.9282 2.68459C62.9282 3.47776 62.6967 4.13874 62.2336 4.66752C61.7906 5.19631 61.116 5.4607 60.2099 5.4607C59.3643 5.4607 58.7098 5.20647 58.2467 4.69803C57.8037 4.16925 57.5823 3.54894 57.5823 2.83712C57.5823 2.02361 57.8138 1.35246 58.2769 0.823681C58.7401 0.27456 59.4247 0 60.3308 0Z" fill="white"/>
<path d="M65.5909 22.6665V19.9819L71.3295 10.9519C70.9469 10.9722 70.5845 10.9926 70.2422 11.0129C69.8999 11.0129 69.5576 11.0129 69.2153 11.0129H67.9122C67.0595 11.0129 66.3307 10.3928 66.1858 9.54416C66.0012 8.46273 66.8257 7.47414 67.9122 7.47414H74.6404C75.8978 7.47414 76.9171 8.50371 76.9171 9.77376C76.9171 10.2048 76.7972 10.6271 76.571 10.9926L71.4805 19.2192C71.7423 19.1989 71.994 19.1887 72.2356 19.1887C72.4974 19.1684 72.7692 19.1582 73.0511 19.1582H83.4809V22.6665H65.5909Z" fill="white"/>
<path d="M86.9845 9.76214C86.9845 8.43112 88.0528 7.35211 89.3706 7.35211C90.6884 7.35211 91.7566 8.43112 91.7566 9.76214V15.3144C91.7566 16.5346 91.3649 21.9038 94.9591 21.9648C95.1202 22.7783 91.9891 21.8428 92.2106 22.3309C92.4523 22.9207 91.1828 21.9648 91.9983 22.6665L94.9591 25.0155C90.7911 25.0155 89.2196 22.4936 89.0383 22.2089C88.8773 21.9851 88.7162 21.7004 88.5551 21.3547C88.394 20.9886 88.3547 21.0293 88.254 20.5615C87.7305 21.5174 87.4385 21.8396 86.4418 22.3309C85.761 22.6665 84.5481 22.6665 83.4809 22.6665C82.6956 22.6665 81.3072 22.6665 80.824 22.6665C80.2803 22.4021 80.0075 21.8631 79.6451 21.4157C79.3028 20.9479 79.0511 20.3886 78.89 19.7378C78.7491 19.087 78.6786 18.3549 78.6786 17.5413V9.77739C78.6786 8.43795 79.7536 7.35211 81.0798 7.35211C82.4059 7.35211 83.4809 8.43795 83.4809 9.77739V16.9007C83.4809 17.6125 83.5615 18.1922 83.7225 18.6396C83.9038 19.0667 84.2259 19.2802 84.6891 19.2802C85.2528 19.2802 85.9585 19.026 86.4418 18.2735C86.925 17.5007 86.9845 16.3211 86.9845 14.9788V9.76214Z" fill="white"/>
<path d="M60.4669 19.9819H66.2055V22.6665H60.4669V19.9819Z" fill="white"/>
<path d="M36.1264 18.4451C35.726 17.985 35.1435 17.7549 34.3791 17.7549C33.56 17.7549 32.9411 18.0034 32.5225 18.5003C32.1039 18.9789 31.8945 19.5863 31.8945 20.3226C31.8945 20.9668 32.0947 21.5282 32.4952 22.0067C32.9138 22.4669 33.5054 22.697 34.2698 22.697C35.0889 22.697 35.6987 22.4577 36.0991 21.9791C36.5177 21.5006 36.7271 20.9024 36.7271 20.1845C36.7271 19.4851 36.5268 18.9053 36.1264 18.4451Z" fill="white"/>
<path fill-rule="evenodd" clip-rule="evenodd" d="M90.0662 16.5346C90.9002 16.5346 91.5764 17.2175 91.5764 18.06C91.5764 20.4118 93.1907 21.9648 94.7779 21.9648C96.3651 21.9648 97.9795 20.4118 97.9795 18.06C97.9795 17.2175 98.6556 16.5346 99.4896 16.5346C100.324 16.5346 101 17.2175 101 18.06C101 21.7061 98.3952 25.0155 94.7779 25.0155C91.1606 25.0155 88.556 21.7061 88.556 18.06C88.556 17.2175 89.2321 16.5346 90.0662 16.5346Z" fill="white"/>
<path d="M25.3282 12.6646C25.3282 19.6588 19.6583 25.3287 12.6641 25.3287C5.6699 25.3287 0 19.6588 0 12.6646C0 5.67039 5.6699 0.000488281 12.6641 0.000488281C19.6583 0.000488281 25.3282 5.67039 25.3282 12.6646Z" fill="white"/>
<path d="M11.7566 6.17335C12.2271 5.95888 12.8472 6.21623 13.6171 6.94541C13.6171 6.98831 13.5743 7.07409 13.4888 7.20277C13.1039 7.88905 12.9542 9.15438 13.0397 10.9987C13.4674 11.4277 13.724 11.685 13.8095 11.7708C14.6649 10.8701 15.3278 10.098 15.7983 9.4546C16.0549 9.06856 16.1832 8.66108 16.1832 8.23217C16.1832 8.10349 16.2046 8.0177 16.2473 7.97481C17.0172 7.97481 17.5946 8.36085 17.9795 9.13293C17.9795 9.21871 17.8939 9.3045 17.7229 9.39028C17.3807 9.51896 17.0599 9.69053 16.7606 9.905C16.6323 9.99078 16.4184 10.1409 16.119 10.3554C15.3919 10.913 14.6863 11.4706 14.002 12.0282C15.7983 14.0012 17.9153 15.2022 20.3531 15.6312C20.738 15.717 20.9518 15.8028 20.9946 15.8885C21.0374 15.9314 20.9091 15.9958 20.6097 16.0816C19.0273 16.3818 18.0864 16.5105 17.7871 16.4676C17.3594 16.4676 16.9959 16.2746 16.6965 15.8885C15.6273 14.7733 14.4084 13.3149 13.0399 11.5133C13.0827 12.5856 13.1468 14.2584 13.2324 16.5317C13.2324 17.0035 13.2324 17.2394 13.2324 17.2394C13.3179 18.2688 13.0613 19.0838 12.4625 19.6843C12.377 19.6843 12.1845 19.5127 11.8851 19.1696C11.4574 18.6549 11.0298 18.2474 10.6021 17.9471C10.2172 17.6469 10.431 17.5611 11.2436 17.6898C11.7568 17.7756 12.0562 17.797 12.1417 17.7541C12.2273 17.6683 12.2914 16.7676 12.3342 15.0519C12.377 13.1647 12.377 11.2345 12.3342 9.26129C12.3342 8.23186 12.1631 7.37401 11.821 6.68773C11.7354 6.47326 11.7172 6.17335 11.7568 6.17302L11.7566 6.17335ZM10.4736 10.291C11.0723 10.4197 11.4573 10.6985 11.6283 11.1275C11.6283 11.1704 11.5642 11.2776 11.4359 11.4492C11.1793 11.7494 11.0082 12.0282 10.9227 12.2856C10.1101 14.7734 8.65588 16.5534 6.56012 17.6257C6.34627 17.7544 6.19659 17.7973 6.11106 17.7544C6.06829 17.6686 6.15383 17.5399 6.36767 17.3683C8.37787 15.6955 9.63953 13.701 10.1527 11.3848C10.0671 11.3419 9.66083 11.4706 8.93376 11.7708C8.33501 11.9853 7.97147 12.0925 7.84315 12.0925C6.68841 11.7065 6.43179 11.4491 7.07332 11.3204C8.48469 11.1918 9.53249 10.8915 10.2167 10.4197C10.345 10.3339 10.4306 10.291 10.4733 10.291L10.4736 10.291Z" fill="black"/>
<path fill-rule="evenodd" clip-rule="evenodd" d="M11.7565 6.17302C11.7564 6.17303 11.7562 6.17304 11.7561 6.17305C11.7311 6.17554 11.73 6.30149 11.7555 6.44787C11.7694 6.52729 11.7911 6.61273 11.821 6.68773C12.1631 7.37401 12.3342 8.23186 12.3342 9.26129C12.377 11.2345 12.377 13.1647 12.3342 15.0519C12.2914 16.7676 12.2273 17.6683 12.1417 17.7541C12.0562 17.797 11.7568 17.7756 11.2436 17.6898C10.431 17.5611 10.2172 17.6469 10.6021 17.9471C11.0298 18.2474 11.4574 18.6549 11.8851 19.1696C12.1845 19.5127 12.377 19.6843 12.4625 19.6843C13.0613 19.0838 13.3179 18.2688 13.2324 17.2394V16.5317C13.1586 14.571 13.1007 13.057 13.0587 11.9897C13.0521 11.8195 13.0458 11.6607 13.0399 11.5133C13.137 11.6411 13.2333 11.7671 13.3288 11.8915C14.5806 13.52 15.7031 14.8524 16.6965 15.8885C16.9959 16.2746 17.3594 16.4676 17.7871 16.4676C18.0864 16.5105 19.0273 16.3818 20.6097 16.0816C20.6628 16.0664 20.7104 16.0518 20.7527 16.038C20.7562 16.0369 20.7595 16.0357 20.7629 16.0346C20.7631 16.0345 20.7634 16.0345 20.7636 16.0344C20.7637 16.0344 20.7638 16.0343 20.7639 16.0343C20.8189 16.016 20.8644 15.999 20.9004 15.9831C20.9876 15.9446 21.0191 15.913 20.9946 15.8885C20.9719 15.843 20.901 15.7975 20.7819 15.7519C20.775 15.7493 20.768 15.7467 20.7607 15.744C20.6577 15.7064 20.5219 15.6688 20.3531 15.6312C17.9994 15.217 15.9446 14.0831 14.1889 12.2295C14.1262 12.1633 14.0639 12.0962 14.002 12.0282C14.0728 11.9705 14.1438 11.9128 14.2151 11.8551C14.8325 11.3552 15.4672 10.8553 16.119 10.3554C16.4184 10.1409 16.6323 9.99078 16.7606 9.905C17.0599 9.69053 17.3807 9.51896 17.7229 9.39028C17.8939 9.3045 17.9795 9.21871 17.9795 9.13293C17.5946 8.36085 17.0172 7.97481 16.2473 7.97481C16.2046 8.0177 16.1832 8.10349 16.1832 8.23217C16.1832 8.66108 16.0549 9.06856 15.7983 9.4546C15.3629 10.05 14.7628 10.7556 13.9978 11.5714C13.9361 11.6371 13.8734 11.7036 13.8095 11.7708L13.0397 10.9987C12.9542 9.15438 13.1039 7.88905 13.4888 7.20277C13.5743 7.07409 13.6171 6.98831 13.6171 6.94541C12.9841 6.34584 12.4523 6.06527 12.0217 6.1037C11.9288 6.112 11.8406 6.13515 11.7571 6.17315C11.757 6.17319 11.7569 6.17322 11.7568 6.17326C11.7568 6.17329 11.7567 6.17332 11.7566 6.17335L11.7568 6.17302C11.7567 6.17302 11.7566 6.17302 11.7565 6.17302ZM11.6649 5.91389C11.6117 5.93243 11.5717 5.96471 11.546 5.99354C11.5114 6.0324 11.4949 6.07209 11.4873 6.09294C11.4718 6.13591 11.4672 6.17712 11.4653 6.20144C11.4609 6.25586 11.4636 6.31822 11.4697 6.37776C11.4818 6.49771 11.5122 6.65265 11.5668 6.78968C11.5697 6.79674 11.5728 6.80369 11.5762 6.81049C11.894 7.44792 12.0605 8.26059 12.0605 9.26129C12.0605 9.26328 12.0605 9.26527 12.0605 9.26726C12.1032 11.2365 12.1032 13.1626 12.0606 15.0454C12.0392 15.9019 12.0126 16.5508 11.981 16.9947C11.9651 17.2174 11.9484 17.3831 11.9313 17.4957C11.9311 17.4971 11.9309 17.4984 11.9307 17.4998C11.9131 17.499 11.8938 17.4979 11.8726 17.4964C11.7354 17.4866 11.5419 17.4613 11.2886 17.419C11.2878 17.4189 11.2871 17.4188 11.2863 17.4186C11.0781 17.3857 10.9009 17.3652 10.7578 17.3592C10.627 17.3538 10.4843 17.3577 10.3721 17.4027C10.3125 17.4267 10.2223 17.4779 10.1731 17.5848C10.121 17.698 10.1454 17.8056 10.1755 17.8737C10.2274 17.9906 10.3375 18.0885 10.434 18.1638C10.4377 18.1667 10.4413 18.1694 10.4451 18.172C10.8483 18.4551 11.2586 18.8444 11.6749 19.3453C11.6755 19.3461 11.6761 19.3468 11.6768 19.3476C11.6776 19.3485 11.6783 19.3494 11.6791 19.3503C11.8316 19.5251 11.9633 19.6637 12.0722 19.7608C12.1262 19.809 12.1811 19.8527 12.2349 19.8859C12.2799 19.9137 12.3623 19.9588 12.4625 19.9588C12.5351 19.9588 12.6047 19.9299 12.6561 19.8784C13.3216 19.2109 13.5938 18.3138 13.5061 17.2282V16.5317C13.5061 16.5282 13.506 16.5248 13.5059 16.5213C13.4406 14.7854 13.3877 13.3995 13.3473 12.3637C14.5051 13.8549 15.5526 15.0905 16.4895 16.0687C16.8272 16.4985 17.2568 16.7364 17.7688 16.742C17.871 16.7541 18.0023 16.7517 18.1507 16.7414C18.3141 16.7301 18.5158 16.7078 18.7542 16.6752C19.2314 16.61 19.8675 16.5018 20.6606 16.3513C20.6688 16.3497 20.6769 16.3478 20.6849 16.3455C20.8366 16.302 20.9644 16.2588 21.0529 16.2145C21.0899 16.1959 21.158 16.1593 21.2084 16.0962C21.2365 16.061 21.2764 15.9956 21.2764 15.9056C21.2764 15.8355 21.2523 15.7784 21.2228 15.7359C21.1819 15.6698 21.1259 15.625 21.0823 15.5958C21.0288 15.56 20.9671 15.5304 20.9038 15.505C20.7769 15.4541 20.6107 15.4074 20.4125 15.3632C20.4084 15.3623 20.4044 15.3615 20.4004 15.3608C18.1155 14.9587 16.1175 13.8611 14.4024 12.0563C15.0119 11.563 15.6384 11.0696 16.2817 10.5761C16.5792 10.3631 16.7886 10.2162 16.9124 10.1334C16.9138 10.1325 16.9152 10.1315 16.9165 10.1306C16.9176 10.1299 16.9186 10.1291 16.9197 10.1284C17.1997 9.92774 17.4993 9.76752 17.819 9.64732C17.8279 9.64395 17.8367 9.64011 17.8453 9.63582C17.9437 9.58646 18.0368 9.52797 18.1089 9.45572C18.1815 9.3829 18.2532 9.2743 18.2532 9.13293C18.2532 9.09031 18.2433 9.04828 18.2243 9.01017C18.0156 8.59156 17.7464 8.26111 17.4096 8.03593C17.0711 7.8096 16.6802 7.7003 16.2473 7.7003C16.1747 7.7003 16.1051 7.72922 16.0538 7.7807C15.9848 7.84987 15.9512 7.93433 15.9337 8.00474C15.9157 8.07681 15.9095 8.15458 15.9095 8.23217C15.9095 8.60064 15.8008 8.95409 15.5739 9.29732C15.1487 9.87807 14.5598 10.571 13.8041 11.3772L13.7435 11.3163C13.7398 11.3127 13.7412 11.3141 13.7422 11.315L13.5924 11.1648C13.5922 11.1646 13.5977 11.1702 13.5916 11.164L13.5787 11.1511C13.5781 11.1505 13.5774 11.1498 13.5766 11.1489L13.5675 11.1398C13.567 11.1394 13.5663 11.1386 13.5651 11.1374L13.4648 11.0368C13.4658 11.0378 13.472 11.0441 13.4643 11.0363L13.3811 10.9529C13.371 10.9428 13.3866 10.9585 13.3766 10.9484L13.3257 10.8973C13.3152 10.8868 13.3314 10.9031 13.3209 10.8926L13.3085 10.88C13.2721 10.0138 13.29 9.28766 13.3596 8.69882C13.4318 8.08842 13.5577 7.64392 13.7226 7.34587C13.7657 7.2805 13.8025 7.21944 13.8298 7.16469C13.8523 7.11964 13.8908 7.03681 13.8908 6.94541C13.8908 6.86989 13.8598 6.7977 13.805 6.74584C13.4082 6.37001 13.0327 6.09854 12.6792 5.95186C12.3291 5.80656 11.9824 5.77733 11.6649 5.91389ZM20.8196 15.717C20.8196 15.7171 20.8186 15.7178 20.8163 15.7191C20.8184 15.7176 20.8196 15.7169 20.8196 15.717ZM20.783 16.0558C20.783 16.0558 20.7823 16.0553 20.7811 16.0543C20.7825 16.0553 20.7831 16.0558 20.783 16.0558ZM10.5042 10.0183C10.5132 10.0193 10.5221 10.0207 10.5309 10.0226C11.1863 10.1635 11.6668 10.4848 11.8825 11.0255C11.8954 11.0579 11.9021 11.0925 11.9021 11.1275C11.9021 11.1955 11.8797 11.2522 11.8679 11.2798C11.8532 11.3143 11.8344 11.3488 11.8149 11.3813C11.7758 11.4467 11.7213 11.525 11.6549 11.6139C11.6513 11.6186 11.6476 11.6233 11.6437 11.6278C11.4007 11.9121 11.2531 12.1599 11.1825 12.3718C10.3511 14.9167 8.85559 16.7567 6.69271 17.866C6.57885 17.9339 6.46755 17.9883 6.36267 18.0183C6.26098 18.0475 6.12121 18.0664 5.98864 17.9999C5.93567 17.9733 5.89272 17.9303 5.86624 17.8771C5.77845 17.7011 5.85337 17.5345 5.91539 17.4412C5.98104 17.3425 6.08087 17.2471 6.19471 17.1556C8.04107 15.6186 9.23334 13.8132 9.78509 11.7375C9.59943 11.8001 9.35115 11.8953 9.03798 12.0246C9.03397 12.0263 9.02991 12.0278 9.02583 12.0293C8.72435 12.1373 8.47825 12.2197 8.28928 12.2754C8.11373 12.3272 7.95317 12.367 7.84316 12.367C7.81373 12.367 7.78451 12.3623 7.7566 12.3529C7.46331 12.2549 7.2208 12.163 7.03223 12.077C6.85206 11.9949 6.69253 11.9058 6.59109 11.8041C6.5404 11.7532 6.47561 11.6712 6.45954 11.5583C6.44084 11.4271 6.49574 11.3184 6.56703 11.2469C6.6301 11.1837 6.70882 11.1446 6.77659 11.1185C6.84814 11.0909 6.93055 11.0691 7.01964 11.0512C7.02919 11.0493 7.03884 11.0479 7.04854 11.047C8.4421 10.92 9.43451 10.6259 10.0616 10.1935C10.0627 10.1927 10.0638 10.192 10.0649 10.1913C10.1335 10.1454 10.1975 10.1063 10.2547 10.0777C10.2996 10.0551 10.3822 10.0165 10.4733 10.0165C10.4836 10.0165 10.4938 10.0171 10.504 10.0182L10.5042 10.0183ZM9.86282 11.4251C9.98361 11.39 10.0688 11.374 10.1182 11.3771C10.1328 11.378 10.1443 11.3806 10.1527 11.3848C10.133 11.4736 10.1122 11.562 10.0903 11.6499C10.0901 11.6509 10.0898 11.6519 10.0895 11.653C9.54049 13.8553 8.29986 15.7604 6.36767 17.3683C6.31764 17.4085 6.27462 17.4463 6.23864 17.4817C6.23159 17.4887 6.22482 17.4955 6.21831 17.5023C6.11601 17.6085 6.08025 17.6926 6.11106 17.7544C6.16901 17.7834 6.25642 17.7731 6.37329 17.7234C6.38091 17.7201 6.38866 17.7167 6.39654 17.7132C6.4461 17.6906 6.50063 17.6615 6.56012 17.6257C8.65588 16.5534 10.1101 14.7734 10.9227 12.2856C11.0082 12.0282 11.1793 11.7494 11.4359 11.4492C11.5642 11.2776 11.6283 11.1704 11.6283 11.1275C11.4573 10.6985 11.0723 10.4197 10.4736 10.291L10.4733 10.291C10.4306 10.291 10.345 10.3339 10.2167 10.4197C9.53249 10.8915 8.48469 11.1918 7.07332 11.3204C6.43179 11.4491 6.68841 11.7065 7.84315 12.0925C7.97147 12.0925 8.33501 11.9853 8.93376 11.7708C9.34713 11.6001 9.65682 11.4848 9.86282 11.4251ZM6.18544 17.496C6.18546 17.496 6.18615 17.4959 6.18744 17.4959C6.18607 17.4961 6.18542 17.4961 6.18544 17.496Z" fill="black"/>
<path fill-rule="evenodd" clip-rule="evenodd" d="M40.9629 35.8004C40.9629 35.97 41.0081 36.1366 41.0941 36.2835C41.18 36.4304 41.3036 36.5524 41.4525 36.6372L45.3674 38.8659C45.516 38.9504 45.6845 38.9949 45.856 38.9949C46.0276 38.9949 46.1961 38.9504 46.3447 38.8659L50.2583 36.6389C50.3775 36.5712 50.4804 36.4796 50.5609 36.3705C50.6746 36.4629 50.8023 36.5394 50.9407 36.5967C51.1292 36.6753 51.3318 36.7156 51.5365 36.7152H53.0201C53.1305 36.7149 53.2387 36.6936 53.3392 36.6535C53.4398 36.6937 53.5482 36.7151 53.6588 36.7154H54.214C54.4408 36.7148 54.6581 36.6256 54.8183 36.4672C54.9785 36.3087 55.0684 36.0941 55.0684 35.8703V34.7377H55.1358C55.274 34.7379 55.4113 34.7196 55.544 34.6835C55.5433 34.697 55.543 34.7105 55.543 34.724V35.1997C55.5423 35.3986 55.5813 35.5956 55.658 35.7795C55.7346 35.9635 55.8473 36.1306 55.9897 36.2714C56.132 36.4122 56.3011 36.5239 56.4873 36.6001C56.6735 36.6762 56.8731 36.7153 57.0746 36.7151H57.8743C58.0791 36.7156 58.282 36.6752 58.4705 36.5963C58.6502 36.5218 58.8142 36.415 58.9541 36.2812C59.0991 36.1419 59.2141 35.9753 59.2924 35.7911C59.3721 35.6043 59.413 35.4036 59.4125 35.2009V32.0295C59.4129 31.827 59.3722 31.6265 59.2926 31.4398C59.2143 31.2557 59.0992 31.0891 58.9543 30.9498C58.8143 30.8157 58.6502 30.7085 58.4705 30.6337C58.2819 30.555 58.0792 30.5147 57.8745 30.5152V30.5145H57.0748C56.8733 30.5145 56.6739 30.5538 56.4878 30.63C56.3502 30.6864 56.2219 30.7621 56.1069 30.8547C55.993 30.7641 55.8667 30.6894 55.7315 30.6332C55.5428 30.5541 55.3399 30.5136 55.1349 30.5142L55.1358 30.5147H53.6588C53.5483 30.5149 53.4401 30.5362 53.3397 30.5763C53.2391 30.5361 53.1307 30.5147 53.0201 30.5145L53.0199 30.5147H52.4581C52.2691 30.5146 52.0855 30.5766 51.9362 30.6909C51.787 30.5765 51.6033 30.5144 51.4143 30.5147H50.8591C50.7081 30.515 50.5613 30.5547 50.4328 30.6279C50.3798 30.5797 50.3213 30.5371 50.2583 30.5013L46.3448 28.2723C46.1959 28.1873 46.027 28.1426 45.855 28.1426C45.683 28.1426 45.514 28.1873 45.3651 28.2723L41.4507 30.5121C41.3023 30.597 41.1791 30.7189 41.0935 30.8656C41.0079 31.0123 40.9628 31.1786 40.9629 31.3479V35.8004Z" fill="black"/>
<path d="M44.9347 35.837C44.9535 35.8476 44.9691 35.8629 44.9799 35.8814C44.9908 35.8999 44.9964 35.9209 44.9963 35.9423C44.9962 35.9637 44.9903 35.9846 44.9793 36.003C44.9683 36.0214 44.9525 36.0366 44.9336 36.047L44.3857 36.3532L44.3816 36.3507L43.5301 36.8375C43.4929 36.8587 43.4506 36.8699 43.4076 36.8699C43.3646 36.8699 43.3223 36.8587 43.2851 36.8375L42.1839 36.2095C42.0352 36.1248 41.9118 36.0029 41.8261 35.8563C41.7403 35.7096 41.6952 35.5432 41.6953 35.3739V31.754C41.6954 31.5833 41.7414 31.4156 41.8287 31.2682C41.9159 31.1208 42.0413 30.9988 42.192 30.9149L42.2472 30.8841C42.2754 30.8683 42.3089 30.8643 42.3402 30.8728C42.3715 30.8813 42.3981 30.9018 42.4141 30.9296C42.4246 30.9478 42.43 30.9683 42.4299 30.9891V35.4524C42.4298 35.4737 42.4354 35.4946 42.446 35.513C42.4567 35.5314 42.4721 35.5468 42.4907 35.5575L43.1026 35.9095C43.1212 35.92 43.1422 35.9256 43.1637 35.9256C43.1851 35.9256 43.2062 35.92 43.2248 35.9095L43.2326 35.9051C43.2513 35.8945 43.2667 35.8793 43.2775 35.8609C43.2883 35.8426 43.294 35.8217 43.294 35.8005C43.294 35.7793 43.2883 35.7584 43.2775 35.7401C43.2667 35.7217 43.2513 35.7065 43.2326 35.6959L42.7347 35.4122C42.716 35.4015 42.7005 35.3862 42.6898 35.3678C42.6791 35.3493 42.6735 35.3284 42.6736 35.3072V30.7779C42.6736 30.7351 42.6851 30.6932 42.7069 30.6563C42.7288 30.6194 42.7601 30.5889 42.7978 30.5678L43.2252 30.3291C43.2534 30.3134 43.2869 30.3093 43.3181 30.3179C43.3494 30.3264 43.376 30.3468 43.3921 30.3746C43.4025 30.3926 43.4079 30.413 43.4079 30.4338V34.8971C43.4078 34.9183 43.4133 34.9392 43.4241 34.9577C43.4348 34.9761 43.4502 34.9914 43.4689 35.0021L44.9347 35.837Z" fill="white"/>
<path d="M44.5732 34.5187C44.545 34.5028 44.5244 34.4764 44.5159 34.4455C44.5074 34.4146 44.5116 34.3817 44.5276 34.3538C44.5385 34.3348 44.5544 34.3192 44.5737 34.3085L45.7938 33.6015C45.8123 33.5908 45.8276 33.5754 45.8382 33.557C45.8488 33.5386 45.8543 33.5177 45.8542 33.4965V29.2448C45.8542 29.2131 45.8479 29.1816 45.8356 29.1523C45.8233 29.1229 45.8053 29.0963 45.7826 29.0738C45.7598 29.0513 45.7328 29.0335 45.7031 29.0213C45.6734 29.0092 45.6415 29.0029 45.6094 29.0029C45.566 29.0029 45.5234 29.0143 45.4861 29.036L44.3862 29.6709L43.7765 30.012C43.7389 30.0331 43.7076 30.0636 43.6858 30.1005C43.664 30.1374 43.6524 30.1793 43.6523 30.222V34.7667C43.6523 34.788 43.6579 34.8089 43.6686 34.8273C43.6793 34.8457 43.6948 34.8611 43.7134 34.8717L45.2398 35.7457C45.2776 35.7673 45.3206 35.7785 45.3643 35.7781C45.408 35.7778 45.4507 35.7659 45.4882 35.7437L45.9194 35.4879C45.9377 35.4769 45.9528 35.4615 45.9632 35.4431C45.9736 35.4247 45.979 35.4039 45.9787 35.3828C45.9785 35.3618 45.9727 35.3411 45.962 35.3229C45.9512 35.3047 45.9358 35.2896 45.9173 35.279L44.5732 34.5187ZM44.4456 30.4819L44.9353 30.1914C44.9538 30.1804 44.975 30.1745 44.9967 30.1743C45.0183 30.174 45.0396 30.1795 45.0585 30.19C45.0773 30.2006 45.0929 30.2159 45.1038 30.2344C45.1146 30.2528 45.1203 30.2738 45.1203 30.2952V33.0841C45.1202 33.1055 45.1145 33.1264 45.1036 33.1449C45.0928 33.1633 45.0771 33.1786 45.0584 33.1892L44.5688 33.4645C44.5501 33.4749 44.5291 33.4804 44.5076 33.4803C44.4862 33.4802 44.4652 33.4745 44.4467 33.4639C44.4282 33.4532 44.4128 33.438 44.4022 33.4197C44.3915 33.4014 44.3859 33.3806 44.3859 33.3595V30.5859C44.386 30.565 44.3916 30.5445 44.402 30.5263C44.4125 30.5081 44.4275 30.4928 44.4456 30.4819Z" fill="white"/>
<path d="M46.0984 29.3876V33.6309C46.0985 33.6521 46.0929 33.673 46.0822 33.6915C46.0715 33.7099 46.056 33.7252 46.0374 33.7359L45.0578 34.296C45.0393 34.3066 45.0239 34.3218 45.0132 34.3402C45.0026 34.3585 44.9969 34.3793 44.9969 34.4004C44.9969 34.4215 45.0026 34.4423 45.0132 34.4606C45.0239 34.4789 45.0393 34.4942 45.0578 34.5048L46.4041 35.2735C46.4226 35.2841 46.438 35.2993 46.4487 35.3177C46.4595 35.336 46.4651 35.3568 46.4651 35.3779C46.4651 35.3991 46.4595 35.4199 46.4487 35.4382C46.438 35.4565 46.4226 35.4718 46.4041 35.4824L43.8354 36.9503C43.8166 36.9609 43.8009 36.9762 43.7901 36.9946C43.7792 37.013 43.7734 37.034 43.7734 37.0554C43.7734 37.0767 43.7792 37.0977 43.7901 37.1161C43.8009 37.1346 43.8166 37.1498 43.8354 37.1604L45.3661 38.0249C45.5142 38.1085 45.6819 38.1525 45.8525 38.1525C46.0232 38.1525 46.1909 38.1085 46.339 38.0249L49.6433 36.1541C49.7553 36.0907 49.8484 35.9992 49.9131 35.8889C49.9778 35.7786 50.0119 35.6534 50.0119 35.5259V31.7591C50.0119 31.5897 49.9667 31.4233 49.8809 31.2766C49.7952 31.1299 49.6718 31.0081 49.5232 30.9233L46.4653 29.1784C46.4281 29.1572 46.3859 29.146 46.343 29.146C46.3 29.146 46.2578 29.1571 46.2206 29.1783C46.1834 29.1995 46.1526 29.23 46.1311 29.2667C46.1096 29.3034 46.0984 29.345 46.0984 29.3874V29.3876ZM49.0948 34.5848L46.9542 33.3596C46.9171 33.3383 46.8863 33.3079 46.8649 33.2712C46.8435 33.2346 46.8323 33.193 46.8323 33.1508V31.5443C46.8322 31.5231 46.8378 31.5022 46.8485 31.4838C46.8592 31.4654 46.8747 31.4501 46.8933 31.4394C46.9119 31.4288 46.9331 31.4231 46.9546 31.4231C46.9761 31.4231 46.9972 31.4287 47.0159 31.4393L48.7909 32.4545C48.9392 32.5393 49.0622 32.6612 49.1478 32.8077C49.2333 32.9543 49.2784 33.1204 49.2784 33.2896V34.4798C49.2784 34.4956 49.2753 34.5113 49.2692 34.526C49.2631 34.5406 49.2541 34.554 49.2428 34.5652C49.2314 34.5764 49.2179 34.5854 49.2031 34.5915C49.1883 34.5975 49.1724 34.6007 49.1563 34.6007C49.1347 34.6008 49.1134 34.5951 49.0948 34.5843V34.5848Z" fill="#627EF7"/>
<path d="M44.933 36.0492L44.3851 36.3564L44.381 36.354L43.5295 36.8426C43.4922 36.864 43.4499 36.8752 43.4068 36.8752C43.3638 36.8752 43.3214 36.864 43.2842 36.8426L42.1829 36.2125C42.0356 36.1279 41.9133 36.0066 41.8281 35.8609L42.4437 35.5092C42.4544 35.5288 42.4704 35.5452 42.4898 35.5565L43.1016 35.9097C43.1202 35.9203 43.1413 35.9259 43.1627 35.9259C43.1842 35.9259 43.2053 35.9203 43.2239 35.9097L43.2317 35.9053C43.2504 35.8947 43.2659 35.8794 43.2768 35.861C43.2876 35.8426 43.2933 35.8216 43.2933 35.8003C43.2933 35.779 43.2876 35.7581 43.2768 35.7397C43.2659 35.7212 43.2504 35.7059 43.2317 35.6953L42.7339 35.4105C42.7157 35.4 42.7005 35.3851 42.6899 35.3671L43.4204 34.9502C43.4311 34.9706 43.4475 34.9877 43.4676 34.9994L44.9341 35.8385C44.9528 35.8491 44.9684 35.8644 44.9792 35.8828C44.99 35.9013 44.9957 35.9222 44.9957 35.9435C44.9957 35.9648 44.99 35.9857 44.9792 36.0042C44.9684 36.0226 44.9528 36.0379 44.9341 36.0485L44.933 36.0492Z" fill="#8F9BB2"/>
<path d="M49.917 35.8767C49.8524 35.9901 49.7579 36.0841 49.6436 36.1489L46.34 38.0231C46.192 38.107 46.0243 38.1511 45.8537 38.1511C45.683 38.1511 45.5154 38.107 45.3674 38.0231L43.8368 37.1567C43.8181 37.1461 43.8026 37.1307 43.7918 37.1123C43.7811 37.0939 43.7754 37.073 43.7754 37.0517C43.7754 37.0304 43.7811 37.0095 43.7918 36.9911C43.8026 36.9726 43.8181 36.9573 43.8368 36.9467L45.8547 35.7906L46.4055 35.4755C46.4242 35.465 46.4398 35.4497 46.4507 35.4312C46.4615 35.4128 46.4672 35.3918 46.4672 35.3705C46.4672 35.3492 46.4615 35.3282 46.4507 35.3098C46.4398 35.2914 46.4242 35.2761 46.4055 35.2655L45.8547 34.9504L45.0589 34.4954C45.0401 34.4848 45.0245 34.4695 45.0137 34.451C45.0028 34.4326 44.9971 34.4117 44.9971 34.3903C44.9971 34.369 45.0028 34.3481 45.0137 34.3296C45.0245 34.3112 45.0401 34.2959 45.0589 34.2853L45.8548 33.8287L46.0384 33.7236C46.0553 33.714 46.0696 33.7004 46.08 33.6841L49.917 35.8767Z" fill="#3B4C95"/>
<path d="M45.9193 35.4734L45.8538 35.5121L45.4882 35.7294C45.4508 35.7516 45.408 35.7635 45.3643 35.7638C45.3206 35.7642 45.2777 35.753 45.2399 35.7314L43.7143 34.858C43.7049 34.8525 43.6963 34.8458 43.6887 34.8382C43.6814 34.8309 43.6751 34.8228 43.6699 34.8139L44.0056 34.6213L44.5596 34.3047C44.5554 34.3078 44.5515 34.3113 44.5478 34.315C44.5442 34.3185 44.5408 34.3223 44.5379 34.3264C44.5372 34.3269 44.5367 34.3277 44.5365 34.3285C44.5338 34.3317 44.5315 34.3351 44.5296 34.3388C44.5286 34.3402 44.5278 34.3417 44.5271 34.3432C44.5258 34.3456 44.5246 34.3481 44.5237 34.3504C44.5225 34.3527 44.5215 34.3551 44.5207 34.3576C44.5196 34.3602 44.5187 34.363 44.518 34.3658C44.5173 34.3671 44.5169 34.3686 44.5168 34.3702C44.5159 34.3738 44.5151 34.3775 44.5147 34.3812C44.511 34.4052 44.5147 34.4297 44.5254 34.4516C44.5361 34.4735 44.5533 34.4916 44.5746 34.5037L45.8554 35.2278L45.9186 35.2628C45.9467 35.2787 45.9674 35.305 45.9759 35.3359C45.9845 35.3667 45.9802 35.3997 45.9642 35.4275C45.9535 35.4464 45.938 35.4622 45.9193 35.4734Z" fill="#8F9BB2"/>
<path d="M53.1433 31.361V35.8716C53.1433 35.8874 53.1401 35.9031 53.134 35.9177C53.1279 35.9324 53.1189 35.9457 53.1076 35.9569C53.0962 35.9681 53.0828 35.977 53.068 35.9831C53.0531 35.9892 53.0373 35.9923 53.0212 35.9923H51.5377C51.3253 35.9925 51.1216 35.9098 50.9709 35.7622C50.8985 35.6904 50.8407 35.6057 50.8006 35.5126C50.7584 35.4142 50.7372 35.3082 50.7383 35.2014V31.361C50.7383 31.3452 50.7414 31.3295 50.7476 31.3148C50.7537 31.3002 50.7627 31.2869 50.774 31.2757C50.7853 31.2645 50.7988 31.2556 50.8136 31.2495C50.8284 31.2434 50.8443 31.2403 50.8604 31.2402H51.4156C51.4317 31.2403 51.4476 31.2434 51.4624 31.2495C51.4772 31.2556 51.4907 31.2645 51.502 31.2757C51.5133 31.2869 51.5223 31.3002 51.5284 31.3148C51.5345 31.3295 51.5377 31.3452 51.5377 31.361V35.0804C51.5376 35.0963 51.5408 35.112 51.5469 35.1266C51.553 35.1412 51.562 35.1545 51.5733 35.1658C51.5847 35.177 51.5981 35.1859 51.613 35.192C51.6278 35.198 51.6437 35.2012 51.6597 35.2012H52.2153C52.2314 35.2012 52.2472 35.198 52.2621 35.192C52.2769 35.1859 52.2903 35.177 52.3017 35.1658C52.313 35.1545 52.322 35.1412 52.3281 35.1266C52.3342 35.112 52.3374 35.0963 52.3374 35.0804V31.361C52.3373 31.3452 52.3405 31.3295 52.3466 31.3148C52.3527 31.3002 52.3617 31.2869 52.373 31.2757C52.3844 31.2645 52.3978 31.2556 52.4126 31.2495C52.4275 31.2434 52.4433 31.2403 52.4594 31.2402H53.0212C53.0373 31.2403 53.0531 31.2434 53.068 31.2495C53.0828 31.2556 53.0962 31.2645 53.1076 31.2757C53.1189 31.2869 53.1279 31.3002 53.134 31.3148C53.1401 31.3295 53.1433 31.3452 53.1433 31.361Z" fill="white"/>
<path d="M55.9401 32.0296V33.2159C55.9412 33.3228 55.92 33.4287 55.8778 33.5271C55.8369 33.6215 55.778 33.7073 55.7043 33.7799C55.6302 33.8533 55.5422 33.9117 55.4453 33.9518C55.3469 33.9928 55.2411 34.0138 55.1342 34.0134H54.4565C54.4405 34.0134 54.4246 34.0165 54.4098 34.0226C54.395 34.0287 54.3815 34.0376 54.3702 34.0488C54.3588 34.06 54.3499 34.0733 54.3437 34.088C54.3376 34.1026 54.3345 34.1183 54.3345 34.1341V35.8701C54.3345 35.886 54.3314 35.9016 54.3253 35.9163C54.3191 35.9309 54.3102 35.9442 54.2988 35.9554C54.2875 35.9667 54.274 35.9756 54.2592 35.9816C54.2444 35.9877 54.2285 35.9909 54.2125 35.9909H53.6572C53.6412 35.9909 53.6253 35.9877 53.6104 35.9816C53.5956 35.9756 53.5822 35.9667 53.5708 35.9554C53.5595 35.9442 53.5505 35.9309 53.5444 35.9163C53.5383 35.9016 53.5351 35.886 53.5352 35.8701V31.3595C53.5351 31.3437 53.5383 31.328 53.5444 31.3134C53.5505 31.2987 53.5595 31.2854 53.5708 31.2742C53.5822 31.263 53.5956 31.2541 53.6104 31.248C53.6253 31.2419 53.6412 31.2388 53.6572 31.2388H55.1342C55.2411 31.2383 55.3469 31.2593 55.4453 31.3004C55.5416 31.3401 55.6294 31.3973 55.7043 31.4689C55.7789 31.5407 55.8379 31.6267 55.8778 31.7217C55.9194 31.8191 55.9405 31.9239 55.9401 32.0296ZM55.1342 33.0953V32.1502C55.1342 32.1343 55.1311 32.1186 55.125 32.104C55.1188 32.0894 55.1098 32.0761 55.0985 32.0648C55.0872 32.0536 55.0737 32.0447 55.0589 32.0386C55.0441 32.0326 55.0282 32.0294 55.0121 32.0294H54.4565C54.4405 32.0294 54.4246 32.0326 54.4098 32.0386C54.395 32.0447 54.3815 32.0536 54.3702 32.0648C54.3588 32.0761 54.3499 32.0894 54.3437 32.104C54.3376 32.1186 54.3345 32.1343 54.3345 32.1502V33.0953C54.3345 33.1112 54.3376 33.1269 54.3437 33.1415C54.3499 33.1561 54.3588 33.1694 54.3702 33.1807C54.3815 33.1919 54.395 33.2008 54.4098 33.2069C54.4246 33.2129 54.4405 33.2161 54.4565 33.2161H55.0121C55.0445 33.2161 55.0755 33.2034 55.0983 33.1808C55.1212 33.1583 55.1341 33.1278 55.1342 33.0959V33.0953Z" fill="white"/>
<path d="M58.6804 32.0298V35.2C58.6809 35.3057 58.6597 35.4104 58.6181 35.5078C58.5782 35.6028 58.5192 35.6888 58.4446 35.7606C58.3697 35.8322 58.2818 35.8894 58.1856 35.9291C58.0872 35.9702 57.9813 35.9912 57.8745 35.9907H57.0748C56.9696 35.9909 56.8654 35.9705 56.7682 35.9308C56.671 35.8911 56.5828 35.8328 56.5085 35.7593C56.4342 35.6858 56.3754 35.5986 56.3354 35.5026C56.2954 35.4066 56.275 35.3037 56.2754 35.2V34.7239C56.2754 34.708 56.2785 34.6923 56.2847 34.6777C56.2908 34.6631 56.2998 34.6498 56.3111 34.6385C56.3224 34.6273 56.3359 34.6184 56.3507 34.6123C56.3655 34.6063 56.3814 34.6031 56.3975 34.6031H56.9527C56.9688 34.6031 56.9847 34.6063 56.9995 34.6123C57.0143 34.6184 57.0278 34.6273 57.0391 34.6385C57.0504 34.6498 57.0594 34.6631 57.0655 34.6777C57.0717 34.6923 57.0748 34.708 57.0748 34.7239V35.0788C57.0747 35.0947 57.0779 35.1104 57.084 35.125C57.0901 35.1396 57.0991 35.1529 57.1104 35.1642C57.1218 35.1754 57.1352 35.1843 57.1501 35.1904C57.1649 35.1964 57.1808 35.1996 57.1968 35.1996H57.7524C57.7685 35.1996 57.7844 35.1964 57.7992 35.1904C57.814 35.1843 57.8274 35.1754 57.8388 35.1642C57.8501 35.1529 57.8591 35.1396 57.8652 35.125C57.8713 35.1104 57.8745 35.0947 57.8745 35.0788V34.1337C57.8745 34.1178 57.8713 34.1021 57.8652 34.0875C57.8591 34.0729 57.8501 34.0595 57.8388 34.0483C57.8274 34.0371 57.814 34.0282 57.7992 34.0221C57.7844 34.0161 57.7685 34.0129 57.7524 34.0129H57.0748C56.9679 34.0134 56.862 33.9924 56.7636 33.9513C56.6674 33.9118 56.5804 33.8533 56.508 33.7794C56.4361 33.7061 56.3783 33.6205 56.3377 33.5267C56.2955 33.4282 56.2743 33.3223 56.2754 33.2154V32.0291C56.275 31.9253 56.2954 31.8224 56.3354 31.7265C56.3754 31.6305 56.4342 31.5432 56.5085 31.4697C56.5828 31.3962 56.671 31.338 56.7682 31.2982C56.8654 31.2585 56.9696 31.2381 57.0748 31.2383H57.8745C57.9813 31.2378 58.0872 31.2588 58.1856 31.2999C58.2818 31.3396 58.3697 31.3968 58.4446 31.4685C58.5192 31.5402 58.5782 31.6262 58.6181 31.7212C58.6597 31.8189 58.6809 31.9238 58.6804 32.0298ZM57.8745 33.0955V32.1504C57.8745 32.1345 57.8713 32.1189 57.8652 32.1042C57.8591 32.0896 57.8501 32.0763 57.8388 32.0651C57.8274 32.0538 57.814 32.0449 57.7992 32.0389C57.7844 32.0328 57.7685 32.0296 57.7524 32.0296H57.1968C57.1808 32.0296 57.1649 32.0328 57.1501 32.0389C57.1352 32.0449 57.1218 32.0538 57.1104 32.0651C57.0991 32.0763 57.0901 32.0896 57.084 32.1042C57.0779 32.1189 57.0747 32.1345 57.0748 32.1504V33.0955C57.0747 33.1114 57.0779 33.1271 57.084 33.1417C57.0901 33.1564 57.0991 33.1697 57.1104 33.1809C57.1218 33.1921 57.1352 33.201 57.1501 33.2071C57.1649 33.2132 57.1808 33.2163 57.1968 33.2163H57.7524C57.7847 33.2163 57.8157 33.2036 57.8386 33.1811C57.8615 33.1585 57.8744 33.128 57.8745 33.0961V33.0955Z" fill="white"/>
<path d="M33.4081 32.5515C33.6958 32.5515 33.9564 32.6266 34.1898 32.7767C34.4233 32.9226 34.6068 33.1269 34.7402 33.3896C34.8778 33.6522 34.9466 33.9503 34.9466 34.2839C34.9466 34.6174 34.8798 34.9176 34.7464 35.1844C34.613 35.4471 34.4296 35.6535 34.1961 35.8035C33.9668 35.9495 33.7125 36.0224 33.4331 36.0224C33.233 36.0224 33.0433 35.9828 32.864 35.9036C32.6889 35.8202 32.543 35.7202 32.4262 35.6034V35.6409C32.4262 35.7493 32.3908 35.8411 32.3199 35.9161C32.2491 35.987 32.1594 36.0224 32.051 36.0224C31.9426 36.0224 31.853 35.987 31.7821 35.9161C31.7112 35.8452 31.6758 35.7535 31.6758 35.6409V31.7135C31.6758 31.6051 31.7112 31.5155 31.7821 31.4446C31.853 31.3696 31.9426 31.332 32.051 31.332C32.1594 31.332 32.2491 31.3696 32.3199 31.4446C32.3908 31.5155 32.4262 31.6051 32.4262 31.7135V33.0206C32.5263 32.8955 32.666 32.7871 32.8453 32.6954C33.0245 32.5995 33.2121 32.5515 33.4081 32.5515ZM33.3143 35.3345C33.5811 35.3345 33.8 35.2344 33.971 35.0343C34.1419 34.8342 34.2274 34.584 34.2274 34.2839C34.2274 33.9837 34.1419 33.7356 33.971 33.5396C33.8042 33.3395 33.5853 33.2395 33.3143 33.2395C33.0433 33.2395 32.8223 33.3395 32.6514 33.5396C32.4804 33.7356 32.395 33.9837 32.395 34.2839C32.395 34.584 32.4804 34.8342 32.6514 35.0343C32.8223 35.2344 33.0433 35.3345 33.3143 35.3345Z" fill="white"/>
<path d="M38.055 32.6141C38.1634 32.6141 38.2531 32.6516 38.3239 32.7266C38.3948 32.7975 38.4303 32.8872 38.4303 32.9956V35.6535C38.4303 36.1955 38.2843 36.5895 37.9925 36.8354C37.7006 37.0856 37.3108 37.2107 36.823 37.2107C36.6813 37.2107 36.5353 37.1982 36.3852 37.1731C36.2393 37.1523 36.1205 37.1231 36.0288 37.0856C35.8245 36.998 35.7223 36.8771 35.7223 36.7229C35.7223 36.6937 35.7286 36.6603 35.7411 36.6228C35.7661 36.5311 35.8078 36.4602 35.8662 36.4102C35.9287 36.3643 35.9954 36.3414 36.0663 36.3414C36.108 36.3414 36.1476 36.3476 36.1851 36.3601C36.2143 36.3727 36.2643 36.3935 36.3352 36.4227C36.4103 36.4519 36.4874 36.4748 36.5666 36.4915C36.65 36.5123 36.7355 36.5227 36.823 36.5227C37.119 36.5227 37.3358 36.4581 37.4734 36.3289C37.6152 36.2038 37.686 35.987 37.686 35.6785V35.6159C37.4692 35.8869 37.1315 36.0224 36.6729 36.0224C36.4561 36.0224 36.2643 35.9724 36.0976 35.8723C35.9308 35.7681 35.8015 35.6264 35.7098 35.4471C35.6181 35.2636 35.5722 35.0552 35.5722 34.8217V32.9956C35.5722 32.8872 35.6077 32.7975 35.6786 32.7266C35.7494 32.6516 35.8391 32.6141 35.9475 32.6141C36.0559 32.6141 36.1455 32.6516 36.2164 32.7266C36.2873 32.7975 36.3227 32.8872 36.3227 32.9956V34.5966C36.3227 34.8592 36.379 35.0489 36.4916 35.1657C36.6083 35.2782 36.7771 35.3345 36.9981 35.3345C37.2149 35.3345 37.3817 35.272 37.4984 35.1469C37.6193 35.0176 37.6798 34.8342 37.6798 34.5966V32.9956C37.6798 32.8872 37.7152 32.7975 37.7861 32.7266C37.857 32.6516 37.9466 32.6141 38.055 32.6141Z" fill="white"/>
</svg>
