<svg width="116" height="44" viewBox="0 0 116 44" fill="none" xmlns="http://www.w3.org/2000/svg">
<path d="M52.0692 26.0325H47.7332L44.854 19.3054C44.7846 19.1185 44.6459 18.7798 44.4378 18.2893C44.2528 17.7754 44.0331 17.2031 43.7787 16.5725C43.5474 15.9185 43.3046 15.2528 43.0502 14.5754C42.7958 13.898 42.5646 13.279 42.3564 12.7184C42.3564 14.9952 42.3251 13.666 42.2524 15.9418C42.2524 17.2385 41.177 18.2893 39.8932 18.2893H39.7574C38.3309 18.2893 37.2033 17.0677 37.3032 15.6304L38.0369 5.06995C38.1448 3.51675 39.4238 2.31244 40.9653 2.31244H41.082C42.3336 2.31244 43.4591 3.08208 43.9239 4.2558L48.5657 15.9769C48.7276 16.3973 48.9357 16.9929 49.1901 17.7637C49.4676 18.5112 49.7335 19.3287 49.9879 20.2163C50.2423 19.3521 50.4967 18.5462 50.7511 17.7988C51.0286 17.028 51.2598 16.4207 51.4449 15.9769L56.1077 4.20256C56.5598 3.06099 57.6545 2.31244 58.8717 2.31244C60.4477 2.31244 61.7505 3.55295 61.8435 5.14192L63.0655 26.0325H57.6888L57.4807 21.2674C57.4575 20.8236 57.4344 20.2397 57.4113 19.5156C57.4113 18.7915 57.4113 18.0324 57.4113 17.2382C57.4113 16.4207 57.4113 15.6148 57.4113 14.8206C57.4344 14.0031 57.446 13.3024 57.446 12.7184C57.261 13.2089 57.0528 13.7695 56.8216 14.4002C56.6134 15.0075 56.3938 15.6031 56.1625 16.1871C55.9312 16.771 55.7115 17.3199 55.5034 17.8338C55.2953 18.3243 55.1334 18.7097 55.0178 18.99L52.0692 26.0325Z" fill="white"/>
<path d="M67.6444 25.2967C66.7424 24.3856 66.4821 23.4748 66.4821 22.2134V11.2118C66.4821 9.68315 67.709 8.44391 69.2225 8.44391C70.736 8.44391 71.9629 9.68315 71.9629 11.2118V20.6368C71.9629 21.174 72.0438 21.5361 72.2057 21.7229C72.3676 21.9098 72.6104 22.0032 72.9342 22.0032C73.1192 22.0032 76.3744 21.9915 76.5594 21.9682C76.7444 21.9215 76.4784 21.9915 76.5247 21.9682L74.3217 25.3317C74.2986 25.3551 74.1945 25.4135 74.0095 25.5069C73.8245 25.577 73.5817 25.6704 73.281 25.7872C71.8417 25.5419 70.7317 25.8573 69.4987 26.0379C68.4076 26.0325 68.0607 25.7171 67.6444 25.2967ZM69.2919 0C70.2631 0 71.0032 0.291974 71.5119 0.875923C72.0207 1.45987 72.2751 2.19565 72.2751 3.08325C72.2751 3.99421 72.0091 4.75335 71.4772 5.36065C70.9685 5.96796 70.1938 6.27162 69.1531 6.27162C68.1818 6.27162 67.4302 5.97964 66.8983 5.39569C66.3896 4.78838 66.1352 4.07597 66.1352 3.25844C66.1352 2.32412 66.4011 1.5533 66.933 0.945998C67.4649 0.315333 68.2512 0 69.2919 0Z" fill="white"/>
<path d="M75.3331 26.0325V22.9492L81.9239 12.5783C81.4845 12.6016 81.0683 12.625 80.6751 12.6483C80.282 12.6483 79.8889 12.6483 79.4957 12.6483H77.9991C77.0198 12.6483 76.1828 11.9362 76.0164 10.9615C75.8044 9.71946 76.7513 8.58405 77.9991 8.58405H85.7264C87.1706 8.58405 88.3413 9.76653 88.3413 11.2252C88.3413 11.7202 88.2036 12.2052 87.9438 12.625L82.0974 22.0733C82.398 22.0499 82.6871 22.0382 82.9646 22.0382C83.2652 22.0149 83.5774 22.0032 83.9012 22.0032H95.8798V26.0325H75.3331Z" fill="white"/>
<path d="M99.9037 11.2118C99.9037 9.68315 101.131 8.44391 102.644 8.44391C104.158 8.44391 105.385 9.68315 105.385 11.2118V17.5886C105.385 18.99 104.935 25.1565 109.063 25.2266C109.248 26.1609 105.652 25.0865 105.906 25.6471C106.183 26.3244 104.725 25.2266 105.662 26.0325L109.063 28.7303C104.276 28.7303 102.471 25.8339 102.263 25.5069C102.078 25.25 101.893 24.923 101.708 24.5259C101.523 24.1054 101.477 24.1521 101.362 23.6149C100.76 24.7127 100.425 25.0828 99.2804 25.6471C98.4985 26.0325 97.1055 26.0325 95.8798 26.0325C94.9779 26.0325 93.3833 26.0325 92.8283 26.0325C92.2039 25.7288 91.8907 25.1098 91.4744 24.5959C91.0812 24.0587 90.7922 23.4164 90.6072 22.6689C90.4453 21.9215 90.3644 21.0806 90.3644 20.1463V11.2293C90.3644 9.69099 91.599 8.44391 93.1221 8.44391C94.6452 8.44391 95.8798 9.69099 95.8798 11.2293V19.4105C95.8798 20.228 95.9723 20.8937 96.1573 21.4076C96.3655 21.8981 96.7355 22.1434 97.2674 22.1434C97.9149 22.1434 98.7254 21.8514 99.2804 20.9871C99.8354 20.0995 99.9037 18.7448 99.9037 17.2031V11.2118Z" fill="white"/>
<path d="M69.4482 22.9492H76.0391V26.0325H69.4482V22.9492Z" fill="white"/>
<path d="M41.4931 21.1842C41.0332 20.6558 40.3643 20.3915 39.4863 20.3915C38.5456 20.3915 37.8348 20.6769 37.354 21.2477C36.8732 21.7973 36.6328 22.4949 36.6328 23.3405C36.6328 24.0804 36.8628 24.7251 37.3227 25.2748C37.8035 25.8033 38.4829 26.0675 39.3609 26.0675C40.3016 26.0675 41.0019 25.7927 41.4618 25.2431C41.9426 24.6934 42.183 24.0064 42.183 23.1819C42.183 22.3786 41.953 21.7127 41.4931 21.1842Z" fill="white"/>
<path fill-rule="evenodd" clip-rule="evenodd" d="M103.443 18.99C104.401 18.99 105.177 19.7744 105.177 20.7419C105.177 23.443 107.032 25.2266 108.854 25.2266C110.677 25.2266 112.531 23.443 112.531 20.7419C112.531 19.7744 113.308 18.99 114.266 18.99C115.224 18.99 116 19.7744 116 20.7419C116 24.9295 113.009 28.7303 108.854 28.7303C104.7 28.7303 101.709 24.9295 101.709 20.7419C101.709 19.7744 102.485 18.99 103.443 18.99Z" fill="white"/>
<path d="M29.0894 14.5447C29.0894 22.5775 22.5775 29.0894 14.5447 29.0894C6.51189 29.0894 0 22.5775 0 14.5447C0 6.51189 6.51189 0 14.5447 0C22.5775 0 29.0894 6.51189 29.0894 14.5447Z" fill="#205CF5"/>
<path d="M13.5065 7.08984C14.0468 6.84352 14.759 7.1391 15.6432 7.97656C15.6432 8.02583 15.5941 8.12435 15.4958 8.27214C15.0537 9.06033 14.8818 10.5136 14.9801 12.6318C15.4713 13.1244 15.766 13.42 15.8642 13.5185C16.8466 12.484 17.608 11.5973 18.1483 10.8584C18.443 10.415 18.5904 9.94701 18.5904 9.4544C18.5904 9.30661 18.6149 9.20809 18.664 9.15883C19.5482 9.15883 20.2113 9.60219 20.6534 10.4889C20.6534 10.5875 20.5551 10.686 20.3587 10.7845C19.9657 10.9323 19.5973 11.1293 19.2535 11.3756C19.1061 11.4742 18.8605 11.6466 18.5167 11.8929C17.6816 12.5333 16.8711 13.1737 16.0852 13.8141C18.1483 16.0802 20.5797 17.4595 23.3795 17.9522C23.8216 18.0507 24.0672 18.1492 24.1163 18.2477C24.1654 18.297 24.0181 18.3709 23.6742 18.4694C21.8568 18.8143 20.7762 18.962 20.4325 18.9128C19.9413 18.9128 19.5237 18.6911 19.1799 18.2477C17.9519 16.9669 16.552 15.2919 14.9803 13.2228C15.0294 14.4544 15.1031 16.3756 15.2013 18.9864C15.2013 19.5283 15.2013 19.7992 15.2013 19.7992C15.2996 20.9815 15.0048 21.9175 14.3172 22.6072C14.2189 22.6072 13.9979 22.4101 13.654 22.016C13.1628 21.4249 12.6716 20.9569 12.1804 20.6121C11.7384 20.2672 11.984 20.1687 12.9173 20.3165C13.5067 20.415 13.8505 20.4396 13.9488 20.3904C14.047 20.2919 14.1207 19.2573 14.1698 17.2868C14.2189 15.1194 14.2189 12.9026 14.1698 10.6363C14.1698 9.45405 13.9733 8.46881 13.5804 7.68061C13.4821 7.43429 13.4612 7.08984 13.5067 7.08946L13.5065 7.08984ZM12.0329 11.819C12.7205 11.9668 13.1626 12.287 13.3591 12.7796C13.3591 12.8289 13.2854 12.9521 13.1381 13.1491C12.8434 13.494 12.6469 13.8142 12.5486 14.1097C11.6154 16.967 9.94524 19.0114 7.53826 20.2429C7.29265 20.3907 7.12073 20.4399 7.0225 20.3907C6.97338 20.2921 7.07162 20.1443 7.31722 19.9473C9.62594 18.0261 11.075 15.7354 11.6643 13.0752C11.5661 13.0259 11.0994 13.1737 10.2644 13.5185C9.57672 13.7648 9.1592 13.888 9.01182 13.888C7.68559 13.4446 7.39087 13.1491 8.12766 13.0013C9.74862 12.8535 10.952 12.5087 11.7379 11.9668C11.8852 11.8683 11.9835 11.819 12.0326 11.819L12.0329 11.819Z" fill="white"/>
<path fill-rule="evenodd" clip-rule="evenodd" d="M13.5063 7.08947C13.5062 7.08948 13.506 7.08949 13.5059 7.0895C13.4771 7.09237 13.4759 7.23702 13.5052 7.40513C13.5211 7.49635 13.546 7.59448 13.5804 7.68061C13.9733 8.46881 14.1698 9.45405 14.1698 10.6363C14.2189 12.9026 14.2189 15.1194 14.1698 17.2868C14.1207 19.2573 14.047 20.2919 13.9488 20.3904C13.8505 20.4396 13.5067 20.415 12.9173 20.3165C11.984 20.1687 11.7384 20.2672 12.1804 20.6121C12.6716 20.9569 13.1628 21.4249 13.654 22.016C13.9979 22.4101 14.2189 22.6072 14.3172 22.6072C15.0048 21.9175 15.2996 20.9815 15.2013 19.7992V18.9864C15.1166 16.7345 15.0501 14.9957 15.0019 13.7699C14.9943 13.5745 14.987 13.3921 14.9803 13.2228C15.0918 13.3696 15.2024 13.5143 15.3121 13.6571C16.7497 15.5275 18.039 17.0577 19.1799 18.2477C19.5237 18.6911 19.9413 18.9128 20.4325 18.9128C20.7762 18.962 21.8568 18.8143 23.6742 18.4694C23.7352 18.452 23.7899 18.4353 23.8385 18.4194C23.8424 18.4181 23.8463 18.4168 23.8501 18.4155C23.8504 18.4154 23.8507 18.4154 23.851 18.4153C23.8511 18.4152 23.8512 18.4152 23.8513 18.4152C23.9144 18.3942 23.9667 18.3746 24.008 18.3563C24.1083 18.3121 24.1444 18.2759 24.1163 18.2477C24.0902 18.1955 24.0088 18.1432 23.872 18.0909C23.8641 18.0878 23.856 18.0848 23.8477 18.0818C23.7294 18.0386 23.5733 17.9954 23.3795 17.9522C20.6762 17.4765 18.3164 16.1742 16.3 14.0454C16.2279 13.9694 16.1564 13.8923 16.0852 13.8141C16.1665 13.7479 16.2481 13.6816 16.33 13.6154C17.0391 13.0412 17.768 12.467 18.5167 11.8929C18.8605 11.6466 19.1061 11.4742 19.2535 11.3756C19.5973 11.1293 19.9657 10.9323 20.3587 10.7845C20.5551 10.686 20.6534 10.5875 20.6534 10.4889C20.2113 9.60219 19.5482 9.15883 18.664 9.15883C18.6149 9.20809 18.5904 9.30661 18.5904 9.4544C18.5904 9.94701 18.443 10.415 18.1483 10.8584C17.6483 11.5422 16.959 12.3525 16.0804 13.2895C16.0096 13.365 15.9375 13.4414 15.8642 13.5185L14.9801 12.6318C14.8818 10.5136 15.0537 9.06033 15.4958 8.27214C15.5941 8.12435 15.6432 8.02583 15.6432 7.97656C14.9162 7.28795 14.3054 6.96572 13.8109 7.00986C13.7041 7.01938 13.6028 7.04597 13.5069 7.08962C13.5069 7.08966 13.5068 7.0897 13.5067 7.08974C13.5066 7.08977 13.5065 7.08981 13.5065 7.08984L13.5067 7.08946C13.5065 7.08946 13.5064 7.08947 13.5063 7.08947ZM13.4011 6.79185C13.34 6.81315 13.2941 6.85023 13.2646 6.88333C13.2248 6.92797 13.2058 6.97355 13.1972 6.9975C13.1794 7.04684 13.1741 7.09418 13.1718 7.12211C13.1668 7.18461 13.1699 7.25623 13.1769 7.32462C13.1908 7.46237 13.2257 7.64032 13.2885 7.7977C13.2917 7.80581 13.2953 7.81379 13.2992 7.82161C13.6642 8.5537 13.8554 9.48705 13.8554 10.6363C13.8554 10.6386 13.8555 10.6409 13.8555 10.6432C13.9045 12.9049 13.9045 15.117 13.8555 17.2794C13.831 18.2631 13.8004 19.0084 13.7641 19.5181C13.7459 19.7739 13.7267 19.9643 13.707 20.0936C13.7068 20.0951 13.7066 20.0967 13.7063 20.0983C13.6862 20.0974 13.664 20.0961 13.6396 20.0944C13.4821 20.0831 13.2599 20.0541 12.9689 20.0055C12.9681 20.0054 12.9672 20.0052 12.9663 20.0051C12.7272 19.9672 12.5236 19.9437 12.3593 19.9368C12.209 19.9305 12.0452 19.9351 11.9163 19.9868C11.8479 20.0143 11.7443 20.0732 11.6878 20.1959C11.628 20.3259 11.6559 20.4495 11.6905 20.5277C11.7501 20.662 11.8765 20.7744 11.9874 20.8609C11.9916 20.8642 11.9958 20.8673 12.0002 20.8703C12.4632 21.1954 12.9344 21.6425 13.4125 22.2179C13.4133 22.2187 13.414 22.2196 13.4147 22.2205C13.4156 22.2215 13.4165 22.2226 13.4175 22.2236C13.5926 22.4243 13.7438 22.5836 13.8688 22.695C13.9309 22.7504 13.9939 22.8006 14.0557 22.8387C14.1074 22.8707 14.2021 22.9225 14.3172 22.9225C14.4005 22.9225 14.4805 22.8892 14.5395 22.8301C15.3039 22.0635 15.6165 21.0332 15.5157 19.7863V18.9864C15.5157 18.9825 15.5156 18.9785 15.5155 18.9745C15.4404 16.9808 15.3797 15.3891 15.3334 14.1994C16.6631 15.9121 17.8661 17.3312 18.9422 18.4547C19.33 18.9483 19.8234 19.2216 20.4114 19.2279C20.5288 19.2418 20.6796 19.2391 20.8501 19.2273C21.0377 19.2143 21.2693 19.1887 21.5432 19.1513C22.0912 19.0763 22.8217 18.952 23.7327 18.7792C23.7421 18.7774 23.7514 18.7752 23.7606 18.7726C23.9348 18.7227 24.0816 18.6731 24.1832 18.6221C24.2257 18.6008 24.304 18.5587 24.3618 18.4863C24.3941 18.4458 24.4399 18.3707 24.4399 18.2674C24.4399 18.1868 24.4123 18.1212 24.3784 18.0725C24.3313 17.9965 24.2671 17.945 24.217 17.9115C24.1555 17.8704 24.0847 17.8364 24.012 17.8072C23.8662 17.7488 23.6754 17.6952 23.4477 17.6444C23.4431 17.6434 23.4384 17.6425 23.4338 17.6416C20.8096 17.1799 18.5149 15.9193 16.5451 13.8464C17.2452 13.2798 17.9647 12.7132 18.7035 12.1465C19.0451 11.9018 19.2857 11.733 19.4279 11.638C19.4294 11.6369 19.431 11.6358 19.4326 11.6347C19.4338 11.6339 19.435 11.6331 19.4362 11.6322C19.7579 11.4018 20.102 11.2178 20.469 11.0797C20.4793 11.0758 20.4894 11.0714 20.4993 11.0665C20.6123 11.0098 20.7193 10.9426 20.802 10.8596C20.8854 10.776 20.9677 10.6513 20.9677 10.4889C20.9677 10.44 20.9564 10.3917 20.9346 10.3479C20.6949 9.86717 20.3857 9.48765 19.9989 9.22902C19.6101 8.96909 19.1611 8.84355 18.664 8.84355C18.5807 8.84355 18.5007 8.87676 18.4417 8.93589C18.3625 9.01534 18.324 9.11233 18.3038 9.1932C18.2832 9.27598 18.276 9.36529 18.276 9.4544C18.276 9.87759 18.1512 10.2835 17.8905 10.6777C17.4023 11.3447 16.7259 12.1405 15.858 13.0664L15.7883 12.9966C15.7842 12.9924 15.7857 12.994 15.7869 12.9951L15.6148 12.8225C15.6146 12.8224 15.6209 12.8287 15.6139 12.8216L15.5991 12.8067C15.5984 12.8061 15.5976 12.8053 15.5966 12.8043L15.5862 12.7938C15.5857 12.7933 15.5848 12.7924 15.5835 12.7911L15.4683 12.6756C15.4694 12.6767 15.4766 12.6839 15.4677 12.675L15.3722 12.5792C15.3606 12.5676 15.3785 12.5855 15.367 12.5739L15.3085 12.5153C15.2965 12.5032 15.3151 12.5219 15.3031 12.5099L15.2887 12.4955C15.247 11.5006 15.2675 10.6666 15.3475 9.99035C15.4304 9.28931 15.575 8.7788 15.7644 8.43649C15.8139 8.36141 15.8562 8.29128 15.8875 8.2284C15.9133 8.17667 15.9575 8.08154 15.9575 7.97656C15.9575 7.88982 15.9219 7.80691 15.859 7.74735C15.4033 7.31571 14.972 7.00392 14.5661 6.83546C14.164 6.66859 13.7657 6.63501 13.4011 6.79185ZM23.9153 18.0508C23.9153 18.0508 23.9141 18.0516 23.9115 18.0531C23.9139 18.0514 23.9153 18.0507 23.9153 18.0508ZM23.8733 18.4399C23.8732 18.4399 23.8724 18.4393 23.8711 18.4381C23.8727 18.4393 23.8734 18.4399 23.8733 18.4399ZM12.0681 11.5057C12.0784 11.5069 12.0886 11.5086 12.0987 11.5107C12.8514 11.6725 13.4033 12.0415 13.651 12.6625C13.6658 12.6998 13.6735 12.7395 13.6735 12.7796C13.6735 12.8578 13.6478 12.9229 13.6342 12.9546C13.6173 12.9942 13.5958 13.0338 13.5734 13.0712C13.5285 13.1463 13.4659 13.2363 13.3896 13.3383C13.3855 13.3438 13.3812 13.3491 13.3768 13.3543C13.0977 13.6808 12.9281 13.9654 12.8471 14.2087C11.8922 17.1315 10.1746 19.2449 7.69053 20.5189C7.55977 20.5969 7.43194 20.6593 7.31148 20.6938C7.19469 20.7273 7.03417 20.749 6.88191 20.6726C6.82107 20.6421 6.77175 20.5927 6.74133 20.5317C6.64051 20.3294 6.72654 20.1382 6.79778 20.031C6.87318 19.9176 6.98783 19.808 7.11858 19.7029C9.23912 17.9377 10.6084 15.8643 11.2421 13.4802C11.0289 13.5522 10.7438 13.6615 10.3841 13.8101C10.3795 13.812 10.3748 13.8137 10.3701 13.8154C10.0239 13.9395 9.74122 14.0341 9.5242 14.0981C9.32258 14.1576 9.13817 14.2033 9.01182 14.2033C8.97803 14.2033 8.94446 14.1978 8.91241 14.1871C8.57557 14.0745 8.29705 13.9689 8.08047 13.8702C7.87355 13.7759 7.69032 13.6736 7.57382 13.5567C7.5156 13.4983 7.4412 13.4041 7.42273 13.2745C7.40126 13.1237 7.46432 12.999 7.54619 12.9169C7.61862 12.8442 7.70903 12.7994 7.78687 12.7694C7.86905 12.7377 7.96369 12.7126 8.06601 12.6921C8.07698 12.6899 8.08806 12.6883 8.0992 12.6873C9.6997 12.5414 10.8395 12.2036 11.5597 11.707C11.561 11.7061 11.5622 11.7053 11.5635 11.7045C11.6423 11.6517 11.7158 11.6068 11.7815 11.5739C11.833 11.5481 11.9279 11.5037 12.0326 11.5037C12.0443 11.5037 12.0561 11.5044 12.0678 11.5057L12.0681 11.5057ZM11.3314 13.1214C11.4701 13.0812 11.5679 13.0628 11.6248 13.0664C11.6415 13.0674 11.6547 13.0703 11.6643 13.0752C11.6417 13.1772 11.6178 13.2787 11.5927 13.3797C11.5924 13.3808 11.5921 13.382 11.5918 13.3832C10.9612 15.9126 9.53635 18.1006 7.31722 19.9473C7.25976 19.9934 7.21036 20.0368 7.16903 20.0775C7.16094 20.0855 7.15316 20.0934 7.14569 20.1011C7.02819 20.2232 6.98713 20.3197 7.0225 20.3907C7.08906 20.424 7.18945 20.4122 7.32368 20.3551C7.33243 20.3514 7.34134 20.3474 7.35038 20.3433C7.4073 20.3175 7.46993 20.284 7.53826 20.2429C9.94524 19.0114 11.6154 16.967 12.5486 14.1097C12.6469 13.8142 12.8434 13.494 13.1381 13.1491C13.2854 12.9521 13.3591 12.8289 13.3591 12.7796C13.1626 12.287 12.7205 11.9668 12.0329 11.819L12.0326 11.819C11.9835 11.819 11.8852 11.8683 11.7379 11.9668C10.952 12.5087 9.74862 12.8535 8.12766 13.0013C7.39087 13.1491 7.68559 13.4446 9.01182 13.888C9.1592 13.888 9.57672 13.7648 10.2644 13.5185C10.7391 13.3225 11.0948 13.1901 11.3314 13.1214ZM7.10793 20.094C7.10796 20.0939 7.10875 20.0939 7.11023 20.0938C7.10865 20.094 7.10791 20.094 7.10793 20.094Z" fill="white"/>
<path fill-rule="evenodd" clip-rule="evenodd" d="M46.6836 40.0391C46.6836 40.2339 46.7356 40.4253 46.8343 40.594C46.933 40.7627 47.0749 40.9028 47.2459 41.0002L51.7422 43.5599C51.9128 43.6569 52.1064 43.708 52.3034 43.708C52.5004 43.708 52.6939 43.6569 52.8646 43.5599L57.3594 41.0022C57.4961 40.9245 57.6142 40.8195 57.7065 40.6944C57.837 40.8003 57.9835 40.888 58.1421 40.9536C58.3586 41.044 58.5914 41.0903 58.8264 41.0897H60.5303C60.6579 41.0894 60.7829 41.0647 60.8989 41.0181C61.0152 41.065 61.1406 41.0899 61.2686 41.0902H61.9063C62.1668 41.0896 62.4164 40.9871 62.6003 40.8051C62.7843 40.6232 62.8875 40.3766 62.8875 40.1196V38.8188H62.9649C63.1224 38.8191 63.2789 38.7984 63.4301 38.7576C63.4294 38.7727 63.429 38.7878 63.429 38.803V39.3494C63.4282 39.5778 63.473 39.8041 63.5611 40.0153C63.6491 40.2265 63.7786 40.4185 63.942 40.5802C64.1055 40.742 64.2997 40.8702 64.5135 40.9577C64.7274 41.0451 64.9566 41.09 65.1881 41.0898H66.1065C66.3418 41.0904 66.5747 41.044 66.7913 40.9533C66.9976 40.8678 67.186 40.7451 67.3467 40.5915C67.5132 40.4315 67.6453 40.2401 67.7352 40.0286C67.8268 39.8141 67.8737 39.5836 67.8731 39.3508V35.7084C67.8737 35.4758 67.8268 35.2455 67.7354 35.0312C67.6455 34.8197 67.5134 34.6283 67.3469 34.4683C67.1861 34.3143 66.9977 34.1912 66.7913 34.1053C66.5747 34.0149 66.3419 33.9686 66.1067 33.9692V33.9684H65.1883C64.9569 33.9684 64.7278 34.0135 64.5141 34.1011C64.3568 34.1655 64.2101 34.252 64.0784 34.3577C63.9481 34.2543 63.8036 34.1691 63.6491 34.1048C63.4324 34.014 63.1993 33.9675 62.9639 33.9681L62.9649 33.9687H61.2686C61.141 33.969 61.016 33.9938 60.9 34.0403C60.7837 33.9935 60.6583 33.9685 60.5303 33.9683L60.5301 33.9685H59.8849C59.6678 33.9683 59.4569 34.0396 59.2855 34.1709C59.1141 34.0394 58.9031 33.9682 58.6861 33.9685H58.0484C57.8752 33.9688 57.7068 34.0143 57.5594 34.0982C57.4986 34.0429 57.4316 33.9942 57.3594 33.9531L52.8648 31.3931C52.6937 31.2955 52.4997 31.2441 52.3021 31.2441C52.1046 31.2441 51.9105 31.2955 51.7395 31.3931L47.2439 33.9656C47.0734 34.0631 46.9319 34.2031 46.8336 34.3716C46.7352 34.54 46.6835 34.7311 46.6836 34.9255V40.0391Z" fill="black"/>
<path d="M51.2478 40.0808C51.2694 40.093 51.2873 40.1106 51.2997 40.1319C51.3122 40.1531 51.3187 40.1772 51.3185 40.2018C51.3184 40.2263 51.3117 40.2504 51.299 40.2715C51.2864 40.2927 51.2683 40.3101 51.2466 40.322L50.6172 40.6736L50.6125 40.6708L49.6346 41.2299C49.5918 41.2543 49.5433 41.2672 49.4939 41.2672C49.4445 41.2672 49.396 41.2543 49.3532 41.2299L48.0884 40.5086C47.9178 40.4113 47.776 40.2714 47.6775 40.1029C47.579 39.9345 47.5272 39.7434 47.5273 39.5489V35.3915C47.5274 35.1954 47.5803 35.0029 47.6805 34.8336C47.7807 34.6642 47.9247 34.5242 48.0978 34.4278L48.1612 34.3924C48.1936 34.3743 48.232 34.3697 48.268 34.3795C48.3039 34.3893 48.3345 34.4127 48.3529 34.4447C48.3649 34.4655 48.3711 34.4891 48.371 34.5131V39.6392C48.3709 39.6636 48.3773 39.6876 48.3896 39.7087C48.4018 39.7299 48.4195 39.7475 48.4409 39.7598L49.1436 40.164C49.1649 40.1762 49.1891 40.1826 49.2138 40.1826C49.2384 40.1826 49.2626 40.1762 49.284 40.164L49.2929 40.159C49.3143 40.1469 49.3321 40.1294 49.3445 40.1083C49.3569 40.0872 49.3634 40.0633 49.3634 40.0389C49.3634 40.0145 49.3569 39.9906 49.3445 39.9695C49.3321 39.9484 49.3143 39.9309 49.2929 39.9188L48.721 39.5929C48.6996 39.5807 48.6819 39.5631 48.6695 39.5419C48.6572 39.5208 48.6508 39.4967 48.651 39.4723V34.2704C48.6509 34.2214 48.6641 34.1732 48.6892 34.1308C48.7143 34.0884 48.7503 34.0533 48.7936 34.0292L49.2844 33.755C49.3168 33.7369 49.3552 33.7323 49.3912 33.7421C49.4271 33.7519 49.4576 33.7753 49.4761 33.8073C49.488 33.828 49.4943 33.8514 49.4942 33.8752V39.0013C49.4941 39.0257 49.5005 39.0498 49.5128 39.0709C49.5251 39.0921 49.5429 39.1097 49.5643 39.1219L51.2478 40.0808Z" fill="white"/>
<path d="M50.831 38.5668C50.7987 38.5485 50.775 38.5183 50.7652 38.4828C50.7554 38.4473 50.7603 38.4094 50.7787 38.3774C50.7912 38.3556 50.8095 38.3376 50.8316 38.3254L52.2329 37.5134C52.2542 37.5011 52.2718 37.4834 52.2839 37.4623C52.2961 37.4411 52.3024 37.4172 52.3022 37.3928V32.5097C52.3023 32.4733 52.295 32.4372 52.2809 32.4035C52.2668 32.3698 52.2461 32.3391 52.22 32.3133C52.1939 32.2875 52.1629 32.2671 52.1288 32.2531C52.0946 32.2391 52.058 32.2319 52.0211 32.2319C51.9713 32.2319 51.9224 32.245 51.8795 32.2699L50.6163 32.999L49.9161 33.3908C49.8728 33.4151 49.8369 33.4501 49.8118 33.4925C49.7868 33.5349 49.7735 33.583 49.7734 33.6321V38.8517C49.7734 38.8761 49.7798 38.9 49.7921 38.9212C49.8044 38.9424 49.8221 38.96 49.8435 38.9723L51.5967 39.976C51.6401 40.0008 51.6894 40.0137 51.7396 40.0133C51.7898 40.0129 51.8389 39.9992 51.8819 39.9738L52.3772 39.6799C52.3982 39.6673 52.4155 39.6496 52.4275 39.6285C52.4394 39.6073 52.4455 39.5835 52.4453 39.5593C52.4451 39.5351 52.4384 39.5113 52.426 39.4904C52.4137 39.4695 52.396 39.4522 52.3748 39.4401L50.831 38.5668ZM50.6845 33.9306L51.2469 33.5969C51.2682 33.5843 51.2925 33.5775 51.3174 33.5772C51.3423 33.5769 51.3668 33.5832 51.3884 33.5953C51.41 33.6074 51.4279 33.625 51.4404 33.6462C51.4529 33.6675 51.4594 33.6916 51.4594 33.7161V36.9192C51.4593 36.9437 51.4527 36.9678 51.4402 36.989C51.4278 37.0101 51.4098 37.0277 51.3883 37.0398L50.8259 37.356C50.8046 37.368 50.7804 37.3743 50.7558 37.3742C50.7312 37.374 50.707 37.3675 50.6858 37.3553C50.6645 37.3431 50.6469 37.3256 50.6346 37.3046C50.6223 37.2835 50.6159 37.2597 50.6159 37.2354V34.05C50.616 34.026 50.6224 34.0024 50.6345 33.9815C50.6465 33.9606 50.6637 33.943 50.6845 33.9306Z" fill="white"/>
<path d="M52.5862 32.6734V37.5469C52.5864 37.5713 52.5799 37.5953 52.5676 37.6165C52.5553 37.6376 52.5376 37.6552 52.5162 37.6675L51.3911 38.3108C51.3699 38.323 51.3522 38.3405 51.3399 38.3615C51.3277 38.3825 51.3212 38.4064 51.3212 38.4307C51.3212 38.455 51.3277 38.4788 51.3399 38.4998C51.3522 38.5209 51.3699 38.5384 51.3911 38.5506L52.9373 39.4335C52.9586 39.4456 52.9763 39.4631 52.9886 39.4842C53.0009 39.5052 53.0074 39.5291 53.0074 39.5534C53.0074 39.5777 53.0009 39.6016 52.9886 39.6226C52.9763 39.6437 52.9586 39.6611 52.9373 39.6733L49.9872 41.3593C49.9656 41.3714 49.9476 41.3889 49.9351 41.4101C49.9226 41.4313 49.916 41.4554 49.916 41.4799C49.916 41.5044 49.9226 41.5285 49.9351 41.5497C49.9476 41.5709 49.9656 41.5884 49.9872 41.6005L51.7452 42.5934C51.9153 42.6895 52.1079 42.74 52.3039 42.74C52.4999 42.74 52.6924 42.6895 52.8625 42.5934L56.6575 40.4448C56.7862 40.372 56.8931 40.2669 56.9674 40.1402C57.0417 40.0135 57.0809 39.8697 57.0809 39.7234V35.3971C57.0809 35.2026 57.029 35.0115 56.9305 34.843C56.832 34.6745 56.6903 34.5346 56.5196 34.4372L53.0076 32.4332C52.9649 32.4089 52.9164 32.396 52.8671 32.396C52.8178 32.396 52.7693 32.4088 52.7266 32.4331C52.6839 32.4574 52.6484 32.4925 52.6238 32.5346C52.5992 32.5768 52.5862 32.6246 52.5862 32.6732V32.6734ZM56.0276 38.6425L53.5691 37.2353C53.5265 37.2109 53.4912 37.1759 53.4666 37.1338C53.442 37.0918 53.4291 37.044 53.4291 36.9955V35.1505C53.429 35.1261 53.4354 35.1021 53.4477 35.0809C53.4601 35.0598 53.4778 35.0422 53.4992 35.03C53.5206 35.0177 53.5448 35.0113 53.5696 35.0113C53.5943 35.0112 53.6186 35.0177 53.64 35.0299L55.6786 36.1958C55.8488 36.2933 55.9902 36.4332 56.0884 36.6015C56.1867 36.7698 56.2384 36.9606 56.2384 37.1549V38.5218C56.2385 38.54 56.2349 38.5581 56.2279 38.5749C56.2209 38.5918 56.2106 38.6071 56.1975 38.62C56.1845 38.6329 56.169 38.6431 56.152 38.6501C56.135 38.6571 56.1167 38.6607 56.0983 38.6607C56.0734 38.6608 56.049 38.6543 56.0276 38.6419V38.6425Z" fill="#627EF7"/>
<path d="M51.2496 40.3244L50.6203 40.6772L50.6156 40.6744L49.6376 41.2356C49.5948 41.2601 49.5462 41.273 49.4967 41.273C49.4473 41.273 49.3987 41.2601 49.3559 41.2356L48.0911 40.5119C47.9219 40.4147 47.7814 40.2755 47.6836 40.1081L48.3906 39.7042C48.4029 39.7267 48.4212 39.7455 48.4435 39.7585L49.1462 40.1642C49.1676 40.1763 49.1918 40.1827 49.2164 40.1827C49.2411 40.1827 49.2653 40.1763 49.2866 40.1642L49.2956 40.1591C49.3171 40.1469 49.3349 40.1294 49.3473 40.1082C49.3598 40.087 49.3663 40.063 49.3663 40.0385C49.3663 40.014 49.3598 39.99 49.3473 39.9688C49.3349 39.9477 49.3171 39.9301 49.2956 39.9179L48.7239 39.5908C48.703 39.5788 48.6856 39.5616 48.6733 39.541L49.5123 39.0621C49.5247 39.0856 49.5434 39.1052 49.5665 39.1186L51.2508 40.0823C51.2723 40.0945 51.2902 40.1121 51.3026 40.1333C51.315 40.1544 51.3216 40.1785 51.3216 40.2029C51.3216 40.2274 51.315 40.2515 51.3026 40.2726C51.2902 40.2938 51.2723 40.3114 51.2508 40.3236L51.2496 40.3244Z" fill="#8F9BB2"/>
<path d="M56.9696 40.1265C56.8955 40.2567 56.787 40.3647 56.6557 40.4391L52.8615 42.5917C52.6915 42.688 52.4989 42.7386 52.3029 42.7386C52.1069 42.7386 51.9144 42.688 51.7444 42.5917L49.9866 41.5966C49.9651 41.5844 49.9473 41.5668 49.9349 41.5456C49.9225 41.5244 49.916 41.5004 49.916 41.476C49.916 41.4515 49.9225 41.4275 49.9349 41.4064C49.9473 41.3852 49.9651 41.3676 49.9866 41.3554L52.3041 40.0276L52.9367 39.6658C52.9582 39.6536 52.9761 39.6361 52.9886 39.6149C53.0011 39.5937 53.0076 39.5696 53.0076 39.5451C53.0076 39.5207 53.0011 39.4966 52.9886 39.4754C52.9761 39.4542 52.9582 39.4367 52.9367 39.4245L52.3041 39.0627L51.3901 38.54C51.3685 38.5279 51.3506 38.5103 51.3382 38.4891C51.3257 38.468 51.3191 38.4439 51.3191 38.4194C51.3191 38.3949 51.3257 38.3709 51.3382 38.3497C51.3506 38.3285 51.3685 38.3109 51.3901 38.2988L52.3043 37.7743L52.5151 37.6537C52.5345 37.6426 52.5509 37.627 52.5628 37.6083L56.9696 40.1265Z" fill="#3B4C95"/>
<path d="M52.3764 39.6633L52.3012 39.7077L51.8813 39.9574C51.8383 39.9829 51.7891 39.9965 51.739 39.9969C51.6888 39.9973 51.6394 39.9844 51.596 39.9596L49.8439 38.9565C49.8332 38.9502 49.8233 38.9425 49.8146 38.9338C49.8061 38.9255 49.7989 38.9161 49.793 38.9058L50.1784 38.6847L50.8147 38.321C50.8099 38.3246 50.8054 38.3286 50.8013 38.3329C50.797 38.3369 50.7932 38.3412 50.7899 38.346C50.7891 38.3466 50.7885 38.3474 50.7882 38.3484C50.7852 38.3521 50.7825 38.356 50.7803 38.3602C50.7792 38.3619 50.7783 38.3635 50.7774 38.3653C50.776 38.3681 50.7746 38.3709 50.7736 38.3735C50.7722 38.3762 50.771 38.3789 50.7701 38.3818C50.7688 38.3848 50.7678 38.388 50.767 38.3912C50.7662 38.3927 50.7657 38.3945 50.7656 38.3962C50.7645 38.4004 50.7637 38.4046 50.7632 38.4089C50.7589 38.4365 50.7632 38.4647 50.7755 38.4898C50.7878 38.5149 50.8075 38.5358 50.832 38.5496L52.303 39.3812L52.3755 39.4215C52.4079 39.4397 52.4316 39.4699 52.4414 39.5053C52.4512 39.5408 52.4464 39.5787 52.4279 39.6106C52.4157 39.6323 52.3979 39.6505 52.3764 39.6633Z" fill="#8F9BB2"/>
<path d="M60.6801 34.9419V40.1223C60.6801 40.1405 60.6765 40.1585 60.6695 40.1753C60.6624 40.1922 60.6521 40.2074 60.6391 40.2203C60.6261 40.2332 60.6106 40.2434 60.5936 40.2504C60.5766 40.2574 60.5583 40.261 60.5399 40.261H58.8361C58.5922 40.2612 58.3582 40.1662 58.1851 39.9967C58.102 39.9143 58.0356 39.817 57.9895 39.71C57.9411 39.597 57.9167 39.4753 57.918 39.3526V34.9419C57.918 34.9237 57.9216 34.9057 57.9286 34.8889C57.9357 34.8721 57.946 34.8568 57.959 34.8439C57.972 34.8311 57.9875 34.8208 58.0045 34.8138C58.0215 34.8069 58.0398 34.8032 58.0582 34.8032H58.6959C58.7143 34.8032 58.7326 34.8069 58.7496 34.8138C58.7666 34.8208 58.7821 34.8311 58.7951 34.8439C58.8081 34.8568 58.8184 34.8721 58.8255 34.8889C58.8325 34.9057 58.8361 34.9237 58.8361 34.9419V39.2137C58.836 39.2319 58.8396 39.2499 58.8467 39.2667C58.8537 39.2835 58.864 39.2988 58.877 39.3117C58.89 39.3246 58.9055 39.3348 58.9225 39.3418C58.9395 39.3488 58.9578 39.3524 58.9762 39.3524H59.6143C59.6328 39.3524 59.651 39.3488 59.668 39.3418C59.6851 39.3348 59.7005 39.3246 59.7135 39.3117C59.7266 39.2988 59.7369 39.2835 59.7439 39.2667C59.7509 39.2499 59.7545 39.2319 59.7545 39.2137V34.9419C59.7545 34.9237 59.7581 34.9057 59.7651 34.8889C59.7721 34.8721 59.7825 34.8568 59.7955 34.8439C59.8085 34.8311 59.824 34.8208 59.841 34.8138C59.858 34.8069 59.8762 34.8032 59.8947 34.8032H60.5399C60.5583 34.8032 60.5766 34.8069 60.5936 34.8138C60.6106 34.8208 60.6261 34.8311 60.6391 34.8439C60.6521 34.8568 60.6624 34.8721 60.6695 34.8889C60.6765 34.9057 60.6801 34.9237 60.6801 34.9419Z" fill="white"/>
<path d="M63.889 35.7084V37.0709C63.8903 37.1937 63.866 37.3153 63.8175 37.4284C63.7705 37.5368 63.7028 37.6353 63.6183 37.7186C63.5331 37.803 63.4321 37.87 63.3208 37.9161C63.2077 37.9632 63.0862 37.9873 62.9634 37.9868H62.1852C62.1667 37.9868 62.1485 37.9904 62.1315 37.9974C62.1144 38.0044 62.099 38.0146 62.086 38.0275C62.0729 38.0404 62.0626 38.0557 62.0556 38.0725C62.0486 38.0893 62.045 38.1073 62.045 38.1255V40.1193C62.045 40.1375 62.0414 40.1555 62.0344 40.1723C62.0274 40.1891 62.017 40.2044 62.004 40.2173C61.991 40.2302 61.9755 40.2404 61.9585 40.2474C61.9415 40.2543 61.9233 40.258 61.9048 40.258H61.2671C61.2487 40.258 61.2304 40.2543 61.2134 40.2474C61.1964 40.2404 61.1809 40.2302 61.1679 40.2173C61.1549 40.2044 61.1446 40.1891 61.1376 40.1723C61.1305 40.1555 61.1269 40.1375 61.127 40.1193V34.9389C61.1269 34.9207 61.1305 34.9027 61.1376 34.8859C61.1446 34.8691 61.1549 34.8538 61.1679 34.8409C61.1809 34.828 61.1964 34.8178 61.2134 34.8108C61.2304 34.8038 61.2487 34.8002 61.2671 34.8002H62.9634C63.0862 34.7997 63.2078 34.8237 63.3208 34.8709C63.4313 34.9166 63.5322 34.9823 63.6183 35.0645C63.7039 35.147 63.7717 35.2457 63.8175 35.3548C63.8652 35.4667 63.8895 35.587 63.889 35.7084ZM62.9634 36.9324V35.8469C62.9635 35.8287 62.9599 35.8107 62.9528 35.7939C62.9458 35.7771 62.9355 35.7618 62.9225 35.7489C62.9095 35.736 62.894 35.7258 62.877 35.7188C62.86 35.7118 62.8417 35.7082 62.8233 35.7082H62.1852C62.1667 35.7082 62.1485 35.7118 62.1315 35.7188C62.1144 35.7258 62.099 35.736 62.086 35.7489C62.0729 35.7618 62.0626 35.7771 62.0556 35.7939C62.0486 35.8107 62.045 35.8287 62.045 35.8469V36.9324C62.045 36.9506 62.0486 36.9686 62.0556 36.9855C62.0626 37.0023 62.0729 37.0176 62.086 37.0304C62.099 37.0433 62.1144 37.0535 62.1315 37.0605C62.1485 37.0675 62.1667 37.0711 62.1852 37.0711H62.8233C62.8604 37.0711 62.896 37.0565 62.9223 37.0307C62.9485 37.0048 62.9633 36.9697 62.9634 36.933V36.9324Z" fill="white"/>
<path d="M67.0355 35.7085V39.3494C67.0361 39.4708 67.0118 39.5911 66.964 39.703C66.9182 39.8121 66.8504 39.9108 66.7648 39.9933C66.6787 40.0756 66.5779 40.1412 66.4673 40.1869C66.3543 40.2341 66.2327 40.2581 66.11 40.2576H65.1915C65.0707 40.2578 64.9511 40.2344 64.8394 40.1888C64.7278 40.1432 64.6265 40.0762 64.5411 39.9918C64.4558 39.9074 64.3883 39.8072 64.3423 39.697C64.2964 39.5867 64.273 39.4686 64.2735 39.3494V38.8026C64.2735 38.7845 64.2771 38.7664 64.2841 38.7496C64.2911 38.7328 64.3014 38.7175 64.3144 38.7046C64.3275 38.6918 64.3429 38.6815 64.3599 38.6746C64.377 38.6676 64.3952 38.664 64.4137 38.6639H65.0514C65.0698 38.664 65.088 38.6676 65.1051 38.6746C65.1221 38.6815 65.1375 38.6918 65.1505 38.7046C65.1636 38.7175 65.1739 38.7328 65.1809 38.7496C65.1879 38.7664 65.1915 38.7845 65.1915 38.8026V39.2103C65.1915 39.2285 65.1951 39.2465 65.2021 39.2633C65.2092 39.2801 65.2195 39.2954 65.2325 39.3083C65.2455 39.3212 65.261 39.3314 65.278 39.3384C65.295 39.3454 65.3133 39.349 65.3317 39.349H65.9698C65.9882 39.349 66.0065 39.3454 66.0235 39.3384C66.0405 39.3314 66.056 39.3212 66.069 39.3083C66.082 39.2954 66.0923 39.2801 66.0994 39.2633C66.1064 39.2465 66.11 39.2285 66.11 39.2103V38.1248C66.11 38.1066 66.1064 38.0886 66.0994 38.0718C66.0923 38.0549 66.082 38.0397 66.069 38.0268C66.056 38.0139 66.0405 38.0037 66.0235 37.9967C66.0065 37.9897 65.9882 37.9861 65.9698 37.9861H65.1915C65.0688 37.9866 64.9472 37.9625 64.8342 37.9153C64.7237 37.8699 64.6238 37.8028 64.5406 37.7179C64.458 37.6338 64.3917 37.5354 64.345 37.4276C64.2965 37.3146 64.2722 37.1929 64.2735 37.0702V35.7077C64.273 35.5885 64.2964 35.4704 64.3423 35.3601C64.3883 35.2499 64.4558 35.1497 64.5411 35.0653C64.6265 34.9809 64.7278 34.9139 64.8394 34.8683C64.9511 34.8227 65.0707 34.7993 65.1915 34.7994H66.11C66.2327 34.7989 66.3543 34.823 66.4673 34.8702C66.5779 34.9159 66.6787 34.9815 66.7648 35.0638C66.8504 35.1462 66.9182 35.245 66.964 35.3541C67.0118 35.4662 67.0362 35.5868 67.0355 35.7085ZM66.11 36.9325V35.847C66.11 35.8288 66.1064 35.8108 66.0994 35.794C66.0923 35.7771 66.082 35.7619 66.069 35.749C66.056 35.7361 66.0405 35.7259 66.0235 35.7189C66.0065 35.7119 65.9882 35.7083 65.9698 35.7083H65.3317C65.3133 35.7083 65.295 35.7119 65.278 35.7189C65.261 35.7259 65.2455 35.7361 65.2325 35.749C65.2195 35.7619 65.2092 35.7771 65.2021 35.794C65.1951 35.8108 65.1915 35.8288 65.1915 35.847V36.9325C65.1915 36.9507 65.1951 36.9687 65.2021 36.9855C65.2092 37.0023 65.2195 37.0176 65.2325 37.0305C65.2455 37.0434 65.261 37.0536 65.278 37.0606C65.295 37.0676 65.3133 37.0712 65.3317 37.0712H65.9698C66.0069 37.0712 66.0425 37.0566 66.0688 37.0307C66.0951 37.0048 66.1099 36.9697 66.11 36.9331V36.9325Z" fill="white"/>
<path d="M38.0072 35.5896C38.3376 35.5896 38.6368 35.6758 38.905 35.8481C39.1731 36.0157 39.3838 36.2504 39.537 36.552C39.6951 36.8537 39.7741 37.1961 39.7741 37.5791C39.7741 37.9622 39.6975 38.307 39.5442 38.6134C39.391 38.9151 39.1803 39.1521 38.9122 39.3245C38.6488 39.4921 38.3567 39.5759 38.0359 39.5759C37.806 39.5759 37.5882 39.5304 37.3823 39.4394C37.1812 39.3437 37.0136 39.2287 36.8795 39.0947V39.1378C36.8795 39.2623 36.8388 39.3676 36.7574 39.4538C36.676 39.5352 36.573 39.5759 36.4485 39.5759C36.324 39.5759 36.2211 39.5352 36.1397 39.4538C36.0583 39.3724 36.0176 39.267 36.0176 39.1378V34.6271C36.0176 34.5026 36.0583 34.3997 36.1397 34.3183C36.2211 34.2321 36.324 34.189 36.4485 34.189C36.573 34.189 36.676 34.2321 36.7574 34.3183C36.8388 34.3997 36.8795 34.5026 36.8795 34.6271V36.1283C36.9944 35.9846 37.1548 35.8601 37.3607 35.7548C37.5666 35.6446 37.7821 35.5896 38.0072 35.5896ZM37.8994 38.7858C38.2059 38.7858 38.4573 38.6709 38.6536 38.4411C38.8499 38.2112 38.9481 37.9239 38.9481 37.5791C38.9481 37.2344 38.8499 36.9495 38.6536 36.7244C38.462 36.4946 38.2107 36.3797 37.8994 36.3797C37.5882 36.3797 37.3344 36.4946 37.1381 36.7244C36.9417 36.9495 36.8436 37.2344 36.8436 37.5791C36.8436 37.9239 36.9417 38.2112 37.1381 38.4411C37.3344 38.6709 37.5882 38.7858 37.8994 38.7858Z" fill="white"/>
<path d="M43.3441 35.6614C43.4686 35.6614 43.5716 35.7045 43.653 35.7907C43.7344 35.8721 43.7751 35.975 43.7751 36.0995V39.1521C43.7751 39.7746 43.6075 40.2271 43.2723 40.5096C42.9371 40.7969 42.4894 40.9406 41.9292 40.9406C41.7664 40.9406 41.5988 40.9262 41.4264 40.8975C41.2588 40.8735 41.1223 40.84 41.017 40.7969C40.7824 40.6964 40.665 40.5575 40.665 40.3803C40.665 40.3468 40.6722 40.3085 40.6866 40.2654C40.7153 40.1601 40.7632 40.0787 40.8302 40.0212C40.9021 39.9685 40.9787 39.9422 41.0601 39.9422C41.108 39.9422 41.1535 39.9494 41.1966 39.9638C41.2301 39.9781 41.2875 40.0021 41.3689 40.0356C41.4551 40.0691 41.5437 40.0954 41.6347 40.1146C41.7305 40.1385 41.8286 40.1505 41.9292 40.1505C42.2692 40.1505 42.5181 40.0763 42.6762 39.9278C42.839 39.7842 42.9204 39.5352 42.9204 39.1809V39.109C42.6714 39.4203 42.2835 39.5759 41.7568 39.5759C41.5078 39.5759 41.2875 39.5184 41.096 39.4035C40.9045 39.2838 40.756 39.121 40.6507 38.9151C40.5453 38.7044 40.4927 38.465 40.4927 38.1968V36.0995C40.4927 35.975 40.5334 35.8721 40.6148 35.7907C40.6962 35.7045 40.7991 35.6614 40.9236 35.6614C41.0481 35.6614 41.1511 35.7045 41.2325 35.7907C41.3139 35.8721 41.3546 35.975 41.3546 36.0995V37.9383C41.3546 38.2399 41.4192 38.4578 41.5485 38.5919C41.6826 38.7212 41.8765 38.7858 42.1303 38.7858C42.3793 38.7858 42.5708 38.714 42.7049 38.5703C42.8438 38.4219 42.9132 38.2112 42.9132 37.9383V36.0995C42.9132 35.975 42.9539 35.8721 43.0353 35.7907C43.1167 35.7045 43.2196 35.6614 43.3441 35.6614Z" fill="white"/>
<path fill-rule="evenodd" clip-rule="evenodd" d="M36.4516 34.2429C36.3411 34.2429 36.2526 34.2805 36.1819 34.3553L36.1809 34.3564C36.1105 34.4268 36.0745 34.5156 36.0745 34.6271V39.1378C36.0745 39.2547 36.1108 39.3457 36.1809 39.4157C36.2513 39.4862 36.3401 39.5221 36.4516 39.5221C36.5628 39.5221 36.6515 39.4864 36.7218 39.4163C36.7929 39.3407 36.8287 39.249 36.8287 39.1378V38.9646L36.9207 39.0566C37.0496 39.1855 37.2116 39.297 37.4078 39.3905C37.6065 39.4782 37.8167 39.5221 38.039 39.5221C38.3498 39.5221 38.6317 39.4411 38.8862 39.2792C39.1457 39.1123 39.3501 38.8828 39.4992 38.5892C39.6482 38.2911 39.7233 37.9548 39.7233 37.5792C39.7233 37.2037 39.6459 36.8701 39.4924 36.5771L39.4921 36.5765C39.343 36.2829 39.1388 36.0559 38.8795 35.8939L38.8789 35.8935C38.6198 35.7269 38.3307 35.6435 38.0102 35.6435C37.7944 35.6435 37.5876 35.6962 37.3892 35.8023L37.3883 35.8028C37.1875 35.9055 37.0337 36.0256 36.9246 36.1619L36.8287 36.2819V34.6271C36.8287 34.5156 36.7928 34.4268 36.7224 34.3564L36.7213 34.3553C36.6506 34.2805 36.5621 34.2429 36.4516 34.2429ZM36.1041 34.2807C36.1962 34.1836 36.3134 34.1351 36.4516 34.1351C36.5898 34.1351 36.707 34.1836 36.7991 34.2807C36.8911 34.373 36.9364 34.4899 36.9364 34.6271V35.9887C37.0447 35.8825 37.1792 35.7888 37.3388 35.7071C37.5521 35.5931 37.7761 35.5357 38.0102 35.5357C38.3504 35.5357 38.6598 35.6246 38.9369 35.8027C39.2137 35.9758 39.4307 36.2179 39.588 36.5274C39.7504 36.8376 39.831 37.1886 39.831 37.5792C39.831 37.9696 39.7529 38.3228 39.5955 38.6376C39.4382 38.9472 39.2211 39.192 38.9444 39.3699C38.6721 39.5431 38.3697 39.6298 38.039 39.6298C37.8018 39.6298 37.5765 39.5828 37.3636 39.4887L37.3622 39.4881C37.1974 39.4097 37.0538 39.3182 36.9316 39.2134C36.9348 39.1889 36.9364 39.1637 36.9364 39.1378V39.0947H36.8826L36.8445 39.1328C36.8462 39.1345 36.8478 39.1361 36.8495 39.1378C36.8757 39.1637 36.9031 39.1889 36.9316 39.2134C36.9177 39.3192 36.8738 39.4123 36.7996 39.4908L36.7986 39.4919C36.7062 39.5843 36.5891 39.6298 36.4516 39.6298C36.3141 39.6298 36.1971 39.5843 36.1047 39.4919C36.0119 39.3991 35.9668 39.2794 35.9668 39.1378V34.6271C35.9668 34.4899 36.0121 34.373 36.1041 34.2807ZM36.1041 34.2807C36.104 34.2809 36.1038 34.2811 36.1036 34.2813L36.1428 34.3183L36.1047 34.2802C36.1045 34.2804 36.1043 34.2806 36.1041 34.2807ZM40.9267 35.7153C40.8162 35.7153 40.7277 35.7529 40.657 35.8277L40.656 35.8288C40.5855 35.8992 40.5496 35.9881 40.5496 36.0996V38.1969C40.5496 38.4578 40.6008 38.6887 40.7019 38.8909C40.8028 39.088 40.9444 39.2433 41.1272 39.3576C41.3093 39.4668 41.5197 39.5221 41.7599 39.5221C42.2759 39.5221 42.6457 39.37 42.8814 39.0754L42.9773 38.9555V39.1809C42.9773 39.5408 42.8951 39.8088 42.7155 39.9677C42.5431 40.1293 42.278 40.2044 41.9323 40.2044C41.8277 40.2044 41.7255 40.192 41.6257 40.1671C41.5322 40.1474 41.4411 40.1203 41.3525 40.0858L41.3515 40.0854C41.2718 40.0526 41.2147 40.0288 41.1806 40.0142C41.1438 40.0022 41.1048 39.9961 41.0632 39.9961C40.9949 39.9961 40.9298 40.0177 40.8669 40.0635C40.8105 40.1124 40.768 40.1831 40.7416 40.2796L40.7409 40.2825C40.7277 40.3219 40.722 40.3543 40.722 40.3804C40.722 40.5267 40.8162 40.6509 41.0409 40.7473C41.1406 40.788 41.2722 40.8206 41.4371 40.8442L41.4383 40.8444C41.608 40.8727 41.7726 40.8868 41.9323 40.8868C42.4832 40.8868 42.9173 40.7456 43.2403 40.4688L43.2407 40.4685C43.5593 40.2 43.7243 39.7657 43.7243 39.1522V36.0996C43.7243 35.9881 43.6884 35.8992 43.618 35.8288L43.6169 35.8277C43.5462 35.7529 43.4577 35.7153 43.3472 35.7153C43.2367 35.7153 43.1482 35.7529 43.0775 35.8277L43.0765 35.8288C43.0061 35.8992 42.9701 35.9881 42.9701 36.0996V37.9383C42.9701 38.2201 42.8983 38.4457 42.7473 38.6072C42.6005 38.7645 42.393 38.8397 42.1334 38.8397C41.8708 38.8397 41.6615 38.7727 41.5142 38.6307L41.5128 38.6293C41.3693 38.4805 41.3038 38.2457 41.3038 37.9383V36.0996C41.3038 35.9881 41.2679 35.8992 41.1975 35.8288L41.1964 35.8277C41.1257 35.7529 41.0372 35.7153 40.9267 35.7153ZM40.5792 35.7532C40.6713 35.656 40.7885 35.6076 40.9267 35.6076C41.0649 35.6076 41.1821 35.656 41.2742 35.7532C41.3662 35.8455 41.4115 35.9623 41.4115 36.0996V37.9383C41.4115 38.2337 41.475 38.4344 41.5897 38.5538C41.7105 38.6699 41.8889 38.732 42.1334 38.732C42.3717 38.732 42.5473 38.6636 42.6686 38.5336C42.7953 38.3982 42.8624 38.2024 42.8624 37.9383V36.0996C42.8624 35.9623 42.9077 35.8455 42.9997 35.7532C43.0918 35.656 43.209 35.6076 43.3472 35.6076C43.4854 35.6076 43.6027 35.656 43.6947 35.7532C43.7867 35.8455 43.8321 35.9623 43.8321 36.0996V39.1522C43.8321 39.7835 43.662 40.2542 43.3103 40.5507C42.963 40.8483 42.5017 40.9945 41.9323 40.9945C41.7665 40.9945 41.5961 40.9799 41.4212 40.9508C41.2514 40.9265 41.1105 40.8921 40.9997 40.8468L40.9989 40.8465C40.7546 40.7418 40.6143 40.5884 40.6143 40.3804C40.6143 40.3398 40.6228 40.2961 40.6381 40.2498C40.669 40.1372 40.7216 40.0461 40.7983 39.9804L40.8014 39.9777C40.8815 39.9189 40.9692 39.8884 41.0632 39.8884C41.1165 39.8884 41.1678 39.8964 41.2167 39.9127L41.2209 39.9141C41.254 39.9283 41.3109 39.9522 41.392 39.9856C41.4753 40.018 41.5609 40.0434 41.6489 40.0619L41.6509 40.0623C41.7423 40.0852 41.836 40.0967 41.9323 40.0967C42.266 40.0967 42.4987 40.0236 42.6424 39.8886L42.6436 39.8875C42.7794 39.7677 42.8584 39.5599 42.8685 39.25C42.6073 39.5054 42.235 39.6298 41.7599 39.6298C41.5023 39.6298 41.2722 39.5702 41.0714 39.4497L41.0705 39.4492C40.8705 39.3242 40.7155 39.154 40.6058 38.9397L40.6056 38.9392C40.496 38.7201 40.4419 38.4722 40.4419 38.1969V36.0996C40.4419 35.9623 40.4872 35.8455 40.5792 35.7532ZM41.4212 40.9508C41.421 40.9507 41.4208 40.9507 41.4206 40.9507L41.4295 40.8975L41.4219 40.9509C41.4217 40.9508 41.4214 40.9508 41.4212 40.9508ZM37.1004 36.6892C37.3072 36.4472 37.5761 36.3258 37.9025 36.3258C38.2288 36.3258 38.4955 36.4471 38.6977 36.6895C38.9036 36.9258 39.005 37.2238 39.005 37.5792C39.005 37.9349 38.9035 38.2351 38.6976 38.4761C38.4909 38.7181 38.2245 38.8397 37.9025 38.8397C37.576 38.8397 37.3071 38.7183 37.1002 38.4761C36.8944 38.2351 36.7928 37.9349 36.7928 37.5792C36.7928 37.2236 36.8943 36.9256 37.1004 36.6892ZM37.9025 36.4336C37.6065 36.4336 37.3679 36.542 37.1821 36.7594L37.1817 36.7599C36.9953 36.9736 36.9005 37.2453 36.9005 37.5792C36.9005 37.913 36.9953 38.1874 37.1821 38.4061C37.3679 38.6236 37.6065 38.732 37.9025 38.732C38.1935 38.732 38.4298 38.6238 38.6157 38.4061C38.8025 38.1874 38.8973 37.913 38.8973 37.5792C38.8973 37.2453 38.8025 36.9736 38.6161 36.7599L38.6153 36.7589C38.4344 36.5419 38.1985 36.4336 37.9025 36.4336Z" fill="black"/>
</svg>
