<svg width="23" height="22" viewBox="0 0 23 22" fill="none" xmlns="http://www.w3.org/2000/svg">
<path d="M11.0049 0C4.93033 0 0.00488281 4.92545 0.00488281 11C0.00488281 17.0746 4.93033 22 11.0049 22C17.0794 22 22.0049 17.0746 22.0049 11C22.0049 4.92545 17.0794 0 11.0049 0ZM7.30957 12.6746C7.30957 13.3571 6.75712 13.9121 6.07453 13.9121C5.74796 13.9121 5.43368 13.7819 5.20042 13.5487C4.96961 13.3154 4.83948 13.0011 4.83948 12.6746C4.83948 11.992 5.39194 11.4371 6.07453 11.4371H7.30957V12.6746ZM10.5997 15.9746C10.5997 16.6571 10.0473 17.2121 9.3647 17.2121C8.68212 17.2121 8.12966 16.6571 8.12966 15.9746V12.6746C8.12966 11.992 8.68212 11.4371 9.3647 11.4371C9.69127 11.4371 10.0056 11.5672 10.2388 11.8004C10.4721 12.0337 10.5997 12.348 10.5997 12.6746V15.9746ZM9.36716 10.6121H6.07698C5.39439 10.6121 4.84194 10.0571 4.84194 9.37455C4.84194 8.69196 5.39439 8.13705 6.07698 8.13705H9.36716C10.0497 8.13705 10.6022 8.69196 10.6022 9.37455C10.5997 10.0596 10.0473 10.6121 9.36716 10.6121ZM9.36716 7.31205C9.0406 7.31205 8.72631 7.18192 8.49305 6.94866C8.25979 6.7154 8.13212 6.40357 8.13212 6.07455C8.13212 5.39196 8.68457 4.83705 9.36716 4.83705C10.0497 4.83705 10.6022 5.39196 10.6022 6.07455V7.31205H9.36716ZM11.4223 6.07455C11.4223 5.39196 11.9747 4.83705 12.6573 4.83705C13.3399 4.83705 13.8924 5.39196 13.8924 6.07455V9.37455C13.8924 10.0571 13.3399 10.6121 12.6573 10.6121C11.9747 10.6121 11.4223 10.0571 11.4223 9.37455V6.07455ZM12.6573 17.2121C11.9747 17.2121 11.4223 16.6571 11.4223 15.9746V14.7371H12.6573C13.3399 14.7371 13.8924 15.292 13.8924 15.9746C13.8924 16.6571 13.3399 17.2121 12.6573 17.2121ZM15.9475 13.9121H12.6573C12.3308 13.9121 12.0165 13.7819 11.7832 13.5487C11.55 13.3154 11.4223 13.0036 11.4223 12.6746C11.4223 11.992 11.9747 11.4371 12.6573 11.4371H15.9475C16.6301 11.4371 17.1826 11.992 17.1826 12.6746C17.1826 13.3571 16.6301 13.9121 15.9475 13.9121ZM15.9475 10.6121H14.7125V9.37455C14.7125 8.69196 15.2649 8.13705 15.9475 8.13705C16.6301 8.13705 17.1826 8.69196 17.1826 9.37455C17.1826 10.0571 16.6301 10.6121 15.9475 10.6121Z" fill="white"/>
</svg>
