<svg width="22" height="22" viewBox="0 0 22 22" fill="none" xmlns="http://www.w3.org/2000/svg">
<path d="M11 0C4.92545 0 0 4.92545 0 11C0 17.0746 4.92545 22 11 22C17.0746 22 22 17.0746 22 11C22 4.92545 17.0746 0 11 0ZM7.30469 12.6746C7.30469 13.3571 6.75223 13.9121 6.06964 13.9121C5.74308 13.9121 5.42879 13.7819 5.19554 13.5487C4.96473 13.3154 4.8346 13.0011 4.8346 12.6746C4.8346 11.992 5.38705 11.4371 6.06964 11.4371H7.30469V12.6746ZM10.5949 15.9746C10.5949 16.6571 10.0424 17.2121 9.35982 17.2121C8.67723 17.2121 8.12478 16.6571 8.12478 15.9746V12.6746C8.12478 11.992 8.67723 11.4371 9.35982 11.4371C9.68638 11.4371 10.0007 11.5672 10.2339 11.8004C10.4672 12.0337 10.5949 12.348 10.5949 12.6746V15.9746ZM9.36228 10.6121H6.0721C5.38951 10.6121 4.83705 10.0571 4.83705 9.37455C4.83705 8.69196 5.38951 8.13705 6.0721 8.13705H9.36228C10.0449 8.13705 10.5973 8.69196 10.5973 9.37455C10.5949 10.0596 10.0424 10.6121 9.36228 10.6121ZM9.36228 7.31205C9.03571 7.31205 8.72143 7.18192 8.48817 6.94866C8.25491 6.7154 8.12723 6.40357 8.12723 6.07455C8.12723 5.39196 8.67969 4.83705 9.36228 4.83705C10.0449 4.83705 10.5973 5.39196 10.5973 6.07455V7.31205H9.36228ZM11.4174 6.07455C11.4174 5.39196 11.9699 4.83705 12.6525 4.83705C13.335 4.83705 13.8875 5.39196 13.8875 6.07455V9.37455C13.8875 10.0571 13.335 10.6121 12.6525 10.6121C11.9699 10.6121 11.4174 10.0571 11.4174 9.37455V6.07455ZM12.6525 17.2121C11.9699 17.2121 11.4174 16.6571 11.4174 15.9746V14.7371H12.6525C13.335 14.7371 13.8875 15.292 13.8875 15.9746C13.8875 16.6571 13.335 17.2121 12.6525 17.2121ZM15.9426 13.9121H12.6525C12.3259 13.9121 12.0116 13.7819 11.7783 13.5487C11.5451 13.3154 11.4174 13.0036 11.4174 12.6746C11.4174 11.992 11.9699 11.4371 12.6525 11.4371H15.9426C16.6252 11.4371 17.1777 11.992 17.1777 12.6746C17.1777 13.3571 16.6252 13.9121 15.9426 13.9121ZM15.9426 10.6121H14.7076V9.37455C14.7076 8.69196 15.26 8.13705 15.9426 8.13705C16.6252 8.13705 17.1777 8.69196 17.1777 9.37455C17.1777 10.0571 16.6252 10.6121 15.9426 10.6121Z" fill="white"/>
</svg>
