<svg width="23" height="22" viewBox="0 0 23 22" fill="none" xmlns="http://www.w3.org/2000/svg">
<path d="M11.0049 -0.000793457C4.93033 -0.000793457 0.00488281 4.92465 0.00488281 10.9992C0.00488281 17.0738 4.93033 21.9992 11.0049 21.9992C17.0794 21.9992 22.0049 17.0738 22.0049 10.9992C22.0049 4.92465 17.0794 -0.000793457 11.0049 -0.000793457ZM7.30957 12.6738C7.30957 13.3563 6.75712 13.9113 6.07453 13.9113C5.74796 13.9113 5.43368 13.7811 5.20042 13.5479C4.96961 13.3146 4.83948 13.0003 4.83948 12.6738C4.83948 11.9912 5.39194 11.4363 6.07453 11.4363H7.30957V12.6738ZM10.5997 15.9738C10.5997 16.6563 10.0473 17.2113 9.3647 17.2113C8.68212 17.2113 8.12966 16.6563 8.12966 15.9738V12.6738C8.12966 11.9912 8.68212 11.4363 9.3647 11.4363C9.69127 11.4363 10.0056 11.5664 10.2388 11.7997C10.4721 12.0329 10.5997 12.3472 10.5997 12.6738V15.9738ZM9.36716 10.6113H6.07698C5.39439 10.6113 4.84194 10.0563 4.84194 9.37376C4.84194 8.69117 5.39439 8.13626 6.07698 8.13626H9.36716C10.0497 8.13626 10.6022 8.69117 10.6022 9.37376C10.5997 10.0588 10.0473 10.6113 9.36716 10.6113ZM9.36716 7.31126C9.0406 7.31126 8.72631 7.18113 8.49305 6.94787C8.25979 6.71461 8.13212 6.40278 8.13212 6.07376C8.13212 5.39117 8.68457 4.83626 9.36716 4.83626C10.0497 4.83626 10.6022 5.39117 10.6022 6.07376V7.31126H9.36716ZM11.4223 6.07376C11.4223 5.39117 11.9747 4.83626 12.6573 4.83626C13.3399 4.83626 13.8924 5.39117 13.8924 6.07376V9.37376C13.8924 10.0563 13.3399 10.6113 12.6573 10.6113C11.9747 10.6113 11.4223 10.0563 11.4223 9.37376V6.07376ZM12.6573 17.2113C11.9747 17.2113 11.4223 16.6563 11.4223 15.9738V14.7363H12.6573C13.3399 14.7363 13.8924 15.2912 13.8924 15.9738C13.8924 16.6563 13.3399 17.2113 12.6573 17.2113ZM15.9475 13.9113H12.6573C12.3308 13.9113 12.0165 13.7811 11.7832 13.5479C11.55 13.3146 11.4223 13.0028 11.4223 12.6738C11.4223 11.9912 11.9747 11.4363 12.6573 11.4363H15.9475C16.6301 11.4363 17.1826 11.9912 17.1826 12.6738C17.1826 13.3563 16.6301 13.9113 15.9475 13.9113ZM15.9475 10.6113H14.7125V9.37376C14.7125 8.69117 15.2649 8.13626 15.9475 8.13626C16.6301 8.13626 17.1826 8.69117 17.1826 9.37376C17.1826 10.0563 16.6301 10.6113 15.9475 10.6113Z" fill="#205CF5"/>
</svg>
