<svg width="23" height="22" viewBox="0 0 23 22" fill="none" xmlns="http://www.w3.org/2000/svg">
<path d="M11.0049 -0.000793457C4.93033 -0.000793457 0.00488281 4.92465 0.00488281 10.9992C0.00488281 17.0738 4.93033 21.9992 11.0049 21.9992C17.0794 21.9992 22.0049 17.0738 22.0049 10.9992C22.0049 4.92465 17.0794 -0.000793457 11.0049 -0.000793457ZM16.2913 8.29095C16.2986 8.40635 16.2986 8.52666 16.2986 8.64452C16.2986 12.249 13.5535 16.401 8.53725 16.401C6.99037 16.401 5.55645 15.9517 4.34841 15.1782C4.56939 15.2028 4.78055 15.2126 5.00645 15.2126C6.28323 15.2126 7.45689 14.7805 8.39238 14.0488C7.19417 14.0242 6.18747 13.2385 5.84372 12.1581C6.26359 12.2195 6.64171 12.2195 7.07386 12.109C6.45689 11.9837 5.90234 11.6486 5.50443 11.1607C5.10652 10.6728 4.88978 10.0623 4.89104 9.43269V9.39831C5.25198 9.60211 5.67676 9.72733 6.12118 9.74452C5.74758 9.49553 5.44119 9.15821 5.22917 8.76245C5.01716 8.36669 4.90608 7.92474 4.90578 7.47577C4.90578 6.96751 5.03837 6.50345 5.27653 6.10077C5.96134 6.94378 6.81587 7.63326 7.7846 8.12439C8.75332 8.61552 9.81454 8.89731 10.8993 8.95144C10.5138 7.09764 11.8986 5.59742 13.5634 5.59742C14.3491 5.59742 15.0562 5.92644 15.5547 6.4568C16.171 6.34139 16.7602 6.11059 17.2857 5.80122C17.0819 6.43224 16.6547 6.96505 16.0875 7.30144C16.6375 7.24251 17.1678 7.09028 17.6589 6.87666C17.2881 7.42175 16.8241 7.90546 16.2913 8.29095Z" fill="#205CF5"/>
</svg>
