<svg width="23" height="22" viewBox="0 0 23 22" fill="none" xmlns="http://www.w3.org/2000/svg">
<path d="M11.0049 0C4.93033 0 0.00488281 4.92545 0.00488281 11C0.00488281 17.0746 4.93033 22 11.0049 22C17.0794 22 22.0049 17.0746 22.0049 11C22.0049 4.92545 17.0794 0 11.0049 0ZM16.2913 8.29174C16.2986 8.40714 16.2986 8.52746 16.2986 8.64531C16.2986 12.2498 13.5535 16.4018 8.53725 16.4018C6.99037 16.4018 5.55645 15.9525 4.34841 15.179C4.56939 15.2036 4.78055 15.2134 5.00645 15.2134C6.28323 15.2134 7.45689 14.7812 8.39238 14.0496C7.19417 14.025 6.18747 13.2393 5.84372 12.1589C6.26359 12.2203 6.64171 12.2203 7.07386 12.1098C6.45689 11.9845 5.90234 11.6494 5.50443 11.1615C5.10652 10.6736 4.88978 10.0631 4.89104 9.43348V9.39911C5.25198 9.6029 5.67676 9.72812 6.12118 9.74531C5.74758 9.49633 5.44119 9.159 5.22917 8.76324C5.01716 8.36749 4.90608 7.92553 4.90578 7.47656C4.90578 6.9683 5.03837 6.50424 5.27653 6.10156C5.96134 6.94458 6.81587 7.63405 7.7846 8.12518C8.75332 8.61631 9.81454 8.8981 10.8993 8.95223C10.5138 7.09844 11.8986 5.59821 13.5634 5.59821C14.3491 5.59821 15.0562 5.92723 15.5547 6.45759C16.171 6.34219 16.7602 6.11138 17.2857 5.80201C17.0819 6.43304 16.6547 6.96585 16.0875 7.30223C16.6375 7.2433 17.1678 7.09107 17.6589 6.87746C17.2881 7.42254 16.8241 7.90625 16.2913 8.29174Z" fill="white"/>
</svg>
